<svg width="1768" height="1019" viewBox="0 0 1768 1019" fill="none" xmlns="http://www.w3.org/2000/svg">
<mask id="mask0_102_3" style="mask-type:alpha" maskUnits="userSpaceOnUse" x="0" y="0" width="1768" height="1019">
<rect width="1768" height="1018.91" fill="#C4C4C4"/>
</mask>
<g mask="url(#mask0_102_3)">
<path d="M504.367 3781C418.987 3729.76 205.538 2450.15 120.158 1838.11C34.7785 1226.06 98.8133 386.27 269.573 66.0118C293.68 20.7989 611.091 258.167 717.816 407.62H1102.02C1102.02 407.62 1251.44 172.764 1507.58 66.0118C1742.37 493.022 1699.68 1411.1 1678.34 1838.11L1229.37 2734.83H867.23V3994.51H354.952C333.607 3994.51 333.607 3951.81 354.952 3887.76C372.028 3836.52 461.677 3795.24 504.367 3781Z" fill="#3F3F3F"/>
<path d="M1488.23 118.872C1516.03 130.653 1538.47 254.065 1553.98 374.653C1554.64 379.809 1549.6 383.813 1544.68 382.126C1507.38 369.324 1518.63 377.651 1560.75 459.264C1562.8 463.226 1560.63 468.059 1556.34 469.266C1521.36 479.101 1518.19 488.621 1578.08 613.496C1636.2 734.69 1223.93 496.115 1143.31 448.633C1136.2 444.451 1134.64 435.13 1140.12 428.975C1193.6 368.91 1438.7 97.8891 1488.23 118.872Z" fill="#222222"/>
<path d="M280.7 101.321C252.898 113.102 230.453 236.513 214.95 357.102C214.287 362.258 219.327 366.262 224.244 364.574C261.547 351.773 250.294 360.1 208.173 441.712C206.128 445.675 208.293 450.507 212.586 451.714C247.567 461.55 250.741 471.07 190.85 595.945C132.724 717.139 544.996 478.564 625.621 431.082C632.723 426.899 634.289 417.579 628.808 411.424C575.322 351.359 330.222 80.3379 280.7 101.321Z" fill="#222222"/>
<path d="M1733.52 1046.27C1704.27 977.4 1793.9 1001.93 1749.62 928.341C1676.91 832.111 1869.37 945.323 1668.74 761.412C1625.98 671.101 1563.29 589.042 1484.27 519.921C1405.25 450.8 1311.44 395.97 1208.19 358.562C1104.95 321.153 994.291 301.9 882.539 301.9C770.787 301.9 660.129 321.153 556.883 358.562C453.638 395.97 359.826 450.8 280.805 519.921C201.785 589.042 139.102 671.101 96.3362 761.413C76.3752 803.566 -34.4818 925.511 50.1455 891.547C-62.7847 1034.01 71.1835 945.323 31.5593 1046.27L1733.52 1046.27Z" fill="#3F3F3F"/>
<path d="M1378.79 755.693C1378.79 837.497 1312.47 903.812 1230.67 903.812C1148.86 903.812 1082.55 837.497 1082.55 755.693C1082.55 673.888 1148.86 607.573 1230.67 607.573C1312.47 607.573 1378.79 673.888 1378.79 755.693Z" fill="white"/>
<path d="M1369.35 742.484C1369.35 816.994 1309.37 877.396 1235.38 877.396C1161.4 877.396 1101.42 816.994 1101.42 742.484C1101.42 667.975 1161.4 607.573 1235.38 607.573C1309.37 607.573 1369.35 667.975 1369.35 742.484Z" fill="black"/>
<path d="M1369.35 742.484C1369.35 816.994 1309.37 877.396 1235.38 877.396C1161.4 877.396 1101.42 816.994 1101.42 742.484C1101.42 667.975 1161.4 607.573 1235.38 607.573C1309.37 607.573 1369.35 667.975 1369.35 742.484Z" fill="black"/>
<path d="M1369.35 742.484C1369.35 816.994 1309.37 877.396 1235.38 877.396C1161.4 877.396 1101.42 816.994 1101.42 742.484C1101.42 667.975 1161.4 607.573 1235.38 607.573C1309.37 607.573 1369.35 667.975 1369.35 742.484Z" fill="black"/>
<path d="M1184.44 672.67C1184.44 688.823 1170.92 701.917 1154.25 701.917C1137.58 701.917 1124.06 688.823 1124.06 672.67C1124.06 656.518 1137.58 643.424 1154.25 643.424C1170.92 643.424 1184.44 656.518 1184.44 672.67Z" fill="black"/>
<path d="M1184.44 672.67C1184.44 688.823 1170.92 701.917 1154.25 701.917C1137.58 701.917 1124.06 688.823 1124.06 672.67C1124.06 656.518 1137.58 643.424 1154.25 643.424C1170.92 643.424 1184.44 656.518 1184.44 672.67Z" fill="black"/>
<path d="M1184.44 672.67C1184.44 688.823 1170.92 701.917 1154.25 701.917C1137.58 701.917 1124.06 688.823 1124.06 672.67C1124.06 656.518 1137.58 643.424 1154.25 643.424C1170.92 643.424 1184.44 656.518 1184.44 672.67Z" fill="#FEFEFE"/>
<path d="M708.947 755.693C708.947 837.497 642.631 903.812 560.827 903.812C479.023 903.812 412.708 837.497 412.708 755.693C412.708 673.888 479.023 607.573 560.827 607.573C642.631 607.573 708.947 673.888 708.947 755.693Z" fill="white"/>
<path d="M699.512 742.484C699.512 816.994 639.533 877.396 565.544 877.396C491.556 877.396 431.576 816.994 431.576 742.484C431.576 667.975 491.556 607.573 565.544 607.573C639.533 607.573 699.512 667.975 699.512 742.484Z" fill="black"/>
<path d="M699.512 742.484C699.512 816.994 639.533 877.396 565.544 877.396C491.556 877.396 431.576 816.994 431.576 742.484C431.576 667.975 491.556 607.573 565.544 607.573C639.533 607.573 699.512 667.975 699.512 742.484Z" fill="black"/>
<path d="M699.512 742.484C699.512 816.994 639.533 877.396 565.544 877.396C491.556 877.396 431.576 816.994 431.576 742.484C431.576 667.975 491.556 607.573 565.544 607.573C639.533 607.573 699.512 667.975 699.512 742.484Z" fill="black"/>
<path d="M514.599 672.67C514.599 688.823 501.082 701.917 484.409 701.917C467.735 701.917 454.219 688.823 454.219 672.67C454.219 656.518 467.735 643.424 484.409 643.424C501.082 643.424 514.599 656.518 514.599 672.67Z" fill="black"/>
<path d="M514.599 672.67C514.599 688.823 501.082 701.917 484.409 701.917C467.735 701.917 454.219 688.823 454.219 672.67C454.219 656.518 467.735 643.424 484.409 643.424C501.082 643.424 514.599 656.518 514.599 672.67Z" fill="black"/>
<path d="M514.599 672.67C514.599 688.823 501.082 701.917 484.409 701.917C467.735 701.917 454.219 688.823 454.219 672.67C454.219 656.518 467.735 643.424 484.409 643.424C501.082 643.424 514.599 656.518 514.599 672.67Z" fill="#FEFEFE"/>
<path d="M922.754 1118.82C907.948 1139.66 877.138 1140.06 861.798 1119.61L778.57 1008.64C760.046 983.94 777.402 948.661 808.272 948.262L971.833 946.148C1002.7 945.749 1020.96 980.568 1003.09 1005.74L922.754 1118.82Z" fill="#222222"/>
</g>
<path d="M641.953 122.797C641.484 124.297 640.688 125.422 639.562 126.172C638.531 126.922 637.5 127.297 636.469 127.297C634.875 127.297 633.516 126.828 632.391 125.891C631.266 124.859 630.609 123.406 630.422 121.531C630.703 118.906 630.844 116.281 630.844 113.656C630.844 107.75 630.281 101.844 629.156 95.9375C628.125 90.0312 627.422 83.9375 627.047 77.6562V73.5781C627.047 72.1719 627.094 70.5781 627.188 68.7969C627.281 67.0156 627.422 65.2812 627.609 63.5938C627.797 61.9062 627.984 60.3594 628.172 58.9531C628.453 57.4531 628.734 56.2812 629.016 55.4375L629.438 54.0312C629.438 53.4688 629.625 52.9531 630 52.4844C630.469 51.9219 630.984 51.4531 631.547 51.0781C632.203 50.7031 632.859 50.4219 633.516 50.2344C634.172 49.9531 634.734 49.8125 635.203 49.8125C636.516 49.8125 637.781 50.2813 639 51.2188C642.656 54.2188 646.359 57.5 650.109 61.0625C653.953 64.5312 657.562 68.0938 660.938 71.75C664.406 75.4062 667.594 79.0625 670.5 82.7188C673.406 86.375 675.75 89.75 677.531 92.8438L678.375 83.7031C678.844 79.6719 679.172 75.5 679.359 71.1875C679.641 66.875 679.828 62.4219 679.922 57.8281C679.734 57.0781 679.641 56.4219 679.641 55.8594C679.641 53.9844 680.156 52.5313 681.188 51.5C682.219 50.4687 683.531 49.9531 685.125 49.9531C686.438 49.9531 687.516 50.1875 688.359 50.6562C689.297 51.125 690 51.7344 690.469 52.4844C691.031 53.2344 691.406 54.0781 691.594 55.0156C691.781 55.8594 691.875 56.7031 691.875 57.5469C691.875 59.0469 691.734 60.5469 691.453 62.0469C691.266 63.4531 691.172 64.7656 691.172 65.9844C690.609 73.8594 690 81.5938 689.344 89.1875C688.688 96.6875 688.359 104.375 688.359 112.25C688.266 114.031 687.703 115.531 686.672 116.75C685.734 117.969 684.328 118.578 682.453 118.578C681.422 118.578 680.438 118.25 679.5 117.594C678.656 116.938 677.859 116.188 677.109 115.344C676.359 114.5 675.703 113.656 675.141 112.812C674.672 111.969 674.344 111.359 674.156 110.984L671.766 105.781C667.359 97.8125 662.297 90.5 656.578 83.8438C650.953 77.0938 645.047 71.0938 638.859 65.8438C638.672 67.1562 638.484 68.5156 638.297 69.9219C638.203 71.2344 638.156 72.5469 638.156 73.8594C638.156 77.4219 638.344 80.9844 638.719 84.5469C639.188 88.1094 639.656 91.6719 640.125 95.2344C640.594 98.7031 641.016 102.219 641.391 105.781C641.859 109.344 642.094 112.953 642.094 116.609C642.094 117.641 642.094 118.672 642.094 119.703C642.094 120.734 642.047 121.766 641.953 122.797ZM713.953 90.875C713.766 90.9688 713.672 91.0625 713.672 91.1562H713.953C714.609 91.1562 715.266 91.3438 715.922 91.7188C716.578 92 717.141 92.375 717.609 92.8438C718.078 93.2188 718.453 93.5938 718.734 93.9688C719.109 94.25 719.344 94.3906 719.438 94.3906C720.844 95.0469 722.391 95.375 724.078 95.375C726.797 95.375 729.094 95 730.969 94.25C732.844 93.4062 733.781 91.4375 733.781 88.3438C733.219 86.4688 732.562 84.9219 731.812 83.7031C731.156 82.4844 730.031 81.3125 728.438 80.1875L725.484 78.9219H723.516C722.766 78.9219 721.781 79.1094 720.562 79.4844C719.344 79.8594 718.125 80.375 716.906 81.0312C716.531 81.5938 716.156 82.4375 715.781 83.5625C715.406 84.5938 715.078 85.625 714.797 86.6562C714.516 87.6875 714.281 88.625 714.094 89.4688C714 90.3125 713.953 90.7812 713.953 90.875ZM715.078 104.516L714.656 102.969C715.781 107.938 718.5 112.016 722.812 115.203C723.75 115.953 724.922 116.609 726.328 117.172C727.828 117.734 729.281 118.25 730.688 118.719C732.188 119.188 733.5 119.562 734.625 119.844C735.75 120.031 736.453 120.125 736.734 120.125C737.672 119.281 738.844 118.859 740.25 118.859C741.938 119.047 743.25 119.75 744.188 120.969C745.125 122.094 745.594 123.312 745.594 124.625C745.594 126.688 744.609 128.328 742.641 129.547C740.766 130.859 738.75 131.516 736.594 131.516C732 131.516 727.641 130.578 723.516 128.703C719.391 126.922 715.781 124.484 712.688 121.391C709.594 118.297 707.062 114.734 705.094 110.703C703.219 106.672 702.188 102.406 702 97.9062C702 94.8125 702.234 91.4844 702.703 87.9219C703.172 84.3594 704.156 81.0781 705.656 78.0781C707.156 74.9844 709.312 72.4062 712.125 70.3438C715.031 68.2812 718.875 67.25 723.656 67.25C726.656 67.25 729.469 67.9062 732.094 69.2188C734.719 70.4375 736.969 72.125 738.844 74.2812C740.812 76.4375 742.359 78.9219 743.484 81.7344C744.609 84.4531 745.172 87.3125 745.172 90.3125C745.172 93.0312 744.656 95.4219 743.625 97.4844C742.688 99.5469 741.375 101.281 739.688 102.688C738 104 735.984 105.031 733.641 105.781C731.391 106.438 729 106.766 726.469 106.766C725.438 106.766 724.266 106.672 722.953 106.484C721.734 106.297 720.562 106.109 719.438 105.922C718.312 105.641 717.328 105.406 716.484 105.219C715.734 104.938 715.266 104.703 715.078 104.516ZM799.453 81.4531C801.328 81.4531 802.922 81.9219 804.234 82.8594C805.547 83.7031 806.203 85.0156 806.203 86.7969C806.203 87.8281 805.922 88.8594 805.359 89.8906C804.891 90.9219 804 91.8594 802.688 92.7031C800.062 93.4531 797.344 94.3438 794.531 95.375C791.719 96.3125 788.953 97.3906 786.234 98.6094C783.609 99.8281 781.078 101.188 778.641 102.688C776.297 104.094 774.281 105.547 772.594 107.047C773.062 107.047 774.141 107.422 775.828 108.172C777.516 108.828 779.109 109.484 780.609 110.141C784.547 111.922 788.391 113.656 792.141 115.344C795.984 117.031 800.156 118.016 804.656 118.297C808.031 119.422 809.719 121.391 809.719 124.203C809.25 127.016 807.516 128.891 804.516 129.828C801.703 129.547 799.078 129.125 796.641 128.562C794.297 128.094 791.859 127.484 789.328 126.734C786.891 125.891 784.266 124.906 781.453 123.781C778.641 122.562 775.406 121.109 771.75 119.422C770.625 118.953 770.062 118.719 770.062 118.719V127.156C770.062 128.562 769.5 129.734 768.375 130.672C767.25 131.703 766.031 132.219 764.719 132.219C763.312 132.219 761.953 131.797 760.641 130.953C759.328 130.109 758.672 128.656 758.672 126.594C758.672 113.188 758.484 99.9688 758.109 86.9375C757.734 73.9062 757.547 60.5938 757.547 47C757.922 45.4062 758.578 44.1875 759.516 43.3438C760.547 42.5 761.766 41.9844 763.172 41.7969C765.984 41.7969 767.906 43.4844 768.938 46.8594C768.938 53.6094 768.984 60.2656 769.078 66.8281C769.172 73.3906 769.312 79.9531 769.5 86.5156L769.781 95.6562C773.719 92.75 778.172 90.0312 783.141 87.5C788.109 84.9688 793.547 82.9531 799.453 81.4531ZM831.094 75.9688C829.781 74.4688 829.125 73.0156 829.125 71.6094C829.125 70.0156 829.594 68.6562 830.531 67.5312C831.562 66.4062 832.875 65.8438 834.469 65.8438C835.688 65.8438 836.906 66.2188 838.125 66.9688C839.344 67.625 840.469 68.4688 841.5 69.5C842.531 70.4375 843.422 71.375 844.172 72.3125C844.922 73.25 845.391 73.9062 845.578 74.2812C845.766 74.1875 846.188 74.1406 846.844 74.1406C848.625 74.1406 850.312 74.6094 851.906 75.5469C853.594 76.3906 855.094 77.5156 856.406 78.9219C857.812 80.3281 859.031 81.8281 860.062 83.4219C861.094 85.0156 861.984 86.5156 862.734 87.9219C863.484 89.3281 864.141 90.875 864.703 92.5625C865.359 94.1562 865.875 95.7969 866.25 97.4844C866.625 99.1719 866.906 100.812 867.094 102.406C867.281 104 867.375 105.453 867.375 106.766C867.375 110.609 866.859 114.219 865.828 117.594C864.891 120.875 863.297 123.781 861.047 126.312C858.891 128.844 856.031 130.812 852.469 132.219C848.906 133.719 844.547 134.469 839.391 134.469C835.641 134.469 832.547 133.344 830.109 131.094C827.766 128.844 825.938 126.219 824.625 123.219C823.312 120.125 822.375 116.984 821.812 113.797C821.344 110.609 821.109 108.031 821.109 106.062C821.109 104.188 821.344 102.359 821.812 100.578C822.281 98.7969 822.891 97.1562 823.641 95.6562C824.391 94.0625 825.141 92.6562 825.891 91.4375C826.734 90.2188 827.531 89.1875 828.281 88.3438L835.312 80.0469C835.219 79.6719 834.891 79.25 834.328 78.7812C833.859 78.2188 833.391 77.7031 832.922 77.2344L831.094 75.9688ZM845.297 84.9688L844.734 85.8125C843.609 87.2188 842.344 88.6719 840.938 90.1719C839.625 91.6719 838.359 93.2188 837.141 94.8125C835.922 96.4062 834.891 98.1406 834.047 100.016C833.203 101.891 832.781 103.953 832.781 106.203C832.781 108.266 832.922 110.328 833.203 112.391C833.578 114.359 834.047 116.141 834.609 117.734C835.266 119.328 836.062 120.641 837 121.672C837.938 122.609 839.016 123.078 840.234 123.078C841.266 123.078 842.297 122.984 843.328 122.797C844.453 122.609 845.438 122.422 846.281 122.234L851.344 119.703C851.625 119.328 852.094 118.859 852.75 118.297C853.406 117.641 853.922 116.984 854.297 116.328C855.141 113.234 855.562 110.188 855.562 107.188C855.562 103.25 854.906 99.5 853.594 95.9375C852.281 92.2812 850.266 88.9531 847.547 85.9531L845.859 85.1094H845.719C845.531 85.1094 845.391 85.0625 845.297 84.9688ZM930.375 95.6562C929.906 95.75 929.484 95.7969 929.109 95.7969L929.953 108.453C930.141 111.359 930.281 114.312 930.375 117.312C930.469 120.219 930.516 123.172 930.516 126.172C930.516 127.766 929.953 129.078 928.828 130.109C927.703 131.141 926.438 131.656 925.031 131.656C923.719 131.656 922.406 131.188 921.094 130.25C919.875 129.406 919.172 128 918.984 126.031C918.984 117.312 918.562 108.5 917.719 99.5938C916.969 90.5938 916.594 81.7812 916.594 73.1562C916.594 71.4688 916.547 69.5938 916.453 67.5312C916.453 65.375 916.547 63.3125 916.734 61.3438C916.922 59.2812 917.25 57.4062 917.719 55.7188C918.281 53.9375 919.125 52.5781 920.25 51.6406C923.531 50.2344 926.859 49.1094 930.234 48.2656C933.703 47.4219 937.219 46.625 940.781 45.875C944.344 45.125 947.953 44.4219 951.609 43.7656C955.266 43.0156 958.969 42.0781 962.719 40.9531C964.781 40.9531 966.375 41.4687 967.5 42.5C968.719 43.5313 969.328 44.8437 969.328 46.4375C969.328 48.6875 968.203 50.6094 965.953 52.2031C962.766 53.1406 959.578 53.9375 956.391 54.5938C953.297 55.1562 950.203 55.7188 947.109 56.2812C944.016 56.8438 940.922 57.4531 937.828 58.1094C934.828 58.6719 931.781 59.4688 928.688 60.5C928.5 62.375 928.359 64.2969 928.266 66.2656C928.172 68.1406 928.125 70.0625 928.125 72.0312V74.4219L928.547 84.125C934.547 82.625 940.922 81.6406 947.672 81.1719C954.516 80.6094 961.359 80.3281 968.203 80.3281C969.797 80.8906 971.062 81.7344 972 82.8594C972.938 83.8906 973.406 85.0156 973.406 86.2344C973.406 87.6406 972.891 88.8125 971.859 89.75C970.828 90.6875 969.516 91.3906 967.922 91.8594C961.453 91.8594 955.125 92.0469 948.938 92.4219C942.75 92.7969 936.562 93.875 930.375 95.6562ZM994.5 90.875C994.312 90.9688 994.219 91.0625 994.219 91.1562H994.5C995.156 91.1562 995.812 91.3438 996.469 91.7188C997.125 92 997.688 92.375 998.156 92.8438C998.625 93.2188 999 93.5938 999.281 93.9688C999.656 94.25 999.891 94.3906 999.984 94.3906C1001.39 95.0469 1002.94 95.375 1004.62 95.375C1007.34 95.375 1009.64 95 1011.52 94.25C1013.39 93.4062 1014.33 91.4375 1014.33 88.3438C1013.77 86.4688 1013.11 84.9219 1012.36 83.7031C1011.7 82.4844 1010.58 81.3125 1008.98 80.1875L1006.03 78.9219H1004.06C1003.31 78.9219 1002.33 79.1094 1001.11 79.4844C999.891 79.8594 998.672 80.375 997.453 81.0312C997.078 81.5938 996.703 82.4375 996.328 83.5625C995.953 84.5938 995.625 85.625 995.344 86.6562C995.062 87.6875 994.828 88.625 994.641 89.4688C994.547 90.3125 994.5 90.7812 994.5 90.875ZM995.625 104.516L995.203 102.969C996.328 107.938 999.047 112.016 1003.36 115.203C1004.3 115.953 1005.47 116.609 1006.88 117.172C1008.38 117.734 1009.83 118.25 1011.23 118.719C1012.73 119.188 1014.05 119.562 1015.17 119.844C1016.3 120.031 1017 120.125 1017.28 120.125C1018.22 119.281 1019.39 118.859 1020.8 118.859C1022.48 119.047 1023.8 119.75 1024.73 120.969C1025.67 122.094 1026.14 123.312 1026.14 124.625C1026.14 126.688 1025.16 128.328 1023.19 129.547C1021.31 130.859 1019.3 131.516 1017.14 131.516C1012.55 131.516 1008.19 130.578 1004.06 128.703C999.938 126.922 996.328 124.484 993.234 121.391C990.141 118.297 987.609 114.734 985.641 110.703C983.766 106.672 982.734 102.406 982.547 97.9062C982.547 94.8125 982.781 91.4844 983.25 87.9219C983.719 84.3594 984.703 81.0781 986.203 78.0781C987.703 74.9844 989.859 72.4062 992.672 70.3438C995.578 68.2812 999.422 67.25 1004.2 67.25C1007.2 67.25 1010.02 67.9062 1012.64 69.2188C1015.27 70.4375 1017.52 72.125 1019.39 74.2812C1021.36 76.4375 1022.91 78.9219 1024.03 81.7344C1025.16 84.4531 1025.72 87.3125 1025.72 90.3125C1025.72 93.0312 1025.2 95.4219 1024.17 97.4844C1023.23 99.5469 1021.92 101.281 1020.23 102.688C1018.55 104 1016.53 105.031 1014.19 105.781C1011.94 106.438 1009.55 106.766 1007.02 106.766C1005.98 106.766 1004.81 106.672 1003.5 106.484C1002.28 106.297 1001.11 106.109 999.984 105.922C998.859 105.641 997.875 105.406 997.031 105.219C996.281 104.938 995.812 104.703 995.625 104.516ZM1048.5 90.875C1048.31 90.9688 1048.22 91.0625 1048.22 91.1562H1048.5C1049.16 91.1562 1049.81 91.3438 1050.47 91.7188C1051.12 92 1051.69 92.375 1052.16 92.8438C1052.62 93.2188 1053 93.5938 1053.28 93.9688C1053.66 94.25 1053.89 94.3906 1053.98 94.3906C1055.39 95.0469 1056.94 95.375 1058.62 95.375C1061.34 95.375 1063.64 95 1065.52 94.25C1067.39 93.4062 1068.33 91.4375 1068.33 88.3438C1067.77 86.4688 1067.11 84.9219 1066.36 83.7031C1065.7 82.4844 1064.58 81.3125 1062.98 80.1875L1060.03 78.9219H1058.06C1057.31 78.9219 1056.33 79.1094 1055.11 79.4844C1053.89 79.8594 1052.67 80.375 1051.45 81.0312C1051.08 81.5938 1050.7 82.4375 1050.33 83.5625C1049.95 84.5938 1049.62 85.625 1049.34 86.6562C1049.06 87.6875 1048.83 88.625 1048.64 89.4688C1048.55 90.3125 1048.5 90.7812 1048.5 90.875ZM1049.62 104.516L1049.2 102.969C1050.33 107.938 1053.05 112.016 1057.36 115.203C1058.3 115.953 1059.47 116.609 1060.88 117.172C1062.38 117.734 1063.83 118.25 1065.23 118.719C1066.73 119.188 1068.05 119.562 1069.17 119.844C1070.3 120.031 1071 120.125 1071.28 120.125C1072.22 119.281 1073.39 118.859 1074.8 118.859C1076.48 119.047 1077.8 119.75 1078.73 120.969C1079.67 122.094 1080.14 123.312 1080.14 124.625C1080.14 126.688 1079.16 128.328 1077.19 129.547C1075.31 130.859 1073.3 131.516 1071.14 131.516C1066.55 131.516 1062.19 130.578 1058.06 128.703C1053.94 126.922 1050.33 124.484 1047.23 121.391C1044.14 118.297 1041.61 114.734 1039.64 110.703C1037.77 106.672 1036.73 102.406 1036.55 97.9062C1036.55 94.8125 1036.78 91.4844 1037.25 87.9219C1037.72 84.3594 1038.7 81.0781 1040.2 78.0781C1041.7 74.9844 1043.86 72.4062 1046.67 70.3438C1049.58 68.2812 1053.42 67.25 1058.2 67.25C1061.2 67.25 1064.02 67.9062 1066.64 69.2188C1069.27 70.4375 1071.52 72.125 1073.39 74.2812C1075.36 76.4375 1076.91 78.9219 1078.03 81.7344C1079.16 84.4531 1079.72 87.3125 1079.72 90.3125C1079.72 93.0312 1079.2 95.4219 1078.17 97.4844C1077.23 99.5469 1075.92 101.281 1074.23 102.688C1072.55 104 1070.53 105.031 1068.19 105.781C1065.94 106.438 1063.55 106.766 1061.02 106.766C1059.98 106.766 1058.81 106.672 1057.5 106.484C1056.28 106.297 1055.11 106.109 1053.98 105.922C1052.86 105.641 1051.88 105.406 1051.03 105.219C1050.28 104.938 1049.81 104.703 1049.62 104.516ZM1120.08 49.6719C1118.86 49.1094 1117.92 48.3125 1117.27 47.2812C1116.61 46.1562 1116.28 45.0781 1116.28 44.0469C1116.28 42.7344 1116.8 41.4687 1117.83 40.25C1118.86 39.0313 1120.41 38.4219 1122.47 38.4219C1126.97 39.2656 1130.39 40.5312 1132.73 42.2188C1135.08 43.8125 1136.77 45.8281 1137.8 48.2656C1138.83 50.6094 1139.39 53.3281 1139.48 56.4219C1139.58 59.5156 1139.62 62.8906 1139.62 66.5469C1139.62 70.0156 1139.58 73.4375 1139.48 76.8125C1139.39 80.1875 1139.34 83.6562 1139.34 87.2188V98.75C1139.34 100.531 1139.3 102.453 1139.2 104.516C1139.11 106.484 1139.02 108.453 1138.92 110.422C1138.83 112.391 1138.73 114.266 1138.64 116.047C1138.55 117.828 1138.5 119.328 1138.5 120.547C1138.5 125.047 1137 128.422 1134 130.672C1131.09 133.016 1125.84 134.188 1118.25 134.188C1114.22 134.188 1110.52 133.203 1107.14 131.234C1103.86 129.266 1101 126.781 1098.56 123.781C1096.22 120.688 1094.34 117.359 1092.94 113.797C1091.62 110.141 1090.97 106.625 1090.97 103.25C1090.97 98.6562 1091.91 94.8125 1093.78 91.7188C1095.66 88.625 1098 86.1875 1100.81 84.4062C1103.62 82.625 1106.58 81.3594 1109.67 80.6094C1112.86 79.8594 1115.72 79.4844 1118.25 79.4844C1119.84 79.4844 1121.44 79.5312 1123.03 79.625C1124.62 79.625 1126.27 79.625 1127.95 79.625C1128.05 76.5312 1128.14 73.25 1128.23 69.7812C1128.33 66.2188 1128.38 62.75 1128.38 59.375C1128.38 57.875 1128.23 56.4688 1127.95 55.1562C1127.77 53.8437 1127.3 52.5781 1126.55 51.3594C1125.52 50.7969 1124.53 50.4687 1123.59 50.375C1122.66 50.1875 1121.48 49.9531 1120.08 49.6719ZM1127.81 91.4375C1127.91 91.25 1127.95 91.1562 1127.95 91.1562C1127.86 91.0625 1127.81 91.0156 1127.81 91.0156C1125.56 91.0156 1123.17 90.9688 1120.64 90.875C1118.2 90.7812 1115.81 90.9688 1113.47 91.4375C1111.22 91.8125 1109.16 92.6094 1107.28 93.8281C1105.5 94.9531 1104.14 96.7344 1103.2 99.1719C1103.02 99.7344 1102.83 100.391 1102.64 101.141C1102.55 101.891 1102.41 102.594 1102.22 103.25C1102.97 109.438 1104.84 113.984 1107.84 116.891C1110.84 119.797 1115.44 121.625 1121.62 122.375C1122.56 122.094 1123.45 121.859 1124.3 121.672C1125.23 121.484 1125.98 121.344 1126.55 121.25C1126.73 116.938 1126.97 112.578 1127.25 108.172C1127.62 103.766 1127.81 99.2188 1127.81 94.5312V91.4375Z" fill="#3F3F3F"/>
<path d="M689.425 197.35C687.242 197.35 685.683 196.733 684.75 195.5C683.817 194.25 683.35 192.367 683.35 189.85C683.35 184.85 685.342 182.35 689.325 182.35C693.258 182.35 695.225 184.75 695.225 189.55V190.075H685.475C685.492 192.042 685.792 193.458 686.375 194.325C686.958 195.175 687.975 195.6 689.425 195.6C691.792 195.6 693.058 194.642 693.225 192.725L695 192.825C694.683 195.842 692.825 197.35 689.425 197.35ZM693.075 188.475C692.992 187.075 692.675 186 692.125 185.25C691.575 184.483 690.65 184.1 689.35 184.1C688.05 184.1 687.117 184.492 686.55 185.275C685.983 186.042 685.642 187.108 685.525 188.475H693.075ZM707.203 183.3C708.203 184.017 708.703 185.367 708.703 187.35V197H707.278L706.728 194.775C705.128 196.492 703.37 197.35 701.453 197.35C700.186 197.35 699.253 197.017 698.653 196.35C698.07 195.683 697.778 194.783 697.778 193.65C697.778 192.517 698.128 191.6 698.828 190.9C699.545 190.2 700.878 189.692 702.828 189.375L706.553 188.775V187.35C706.553 186.117 706.286 185.267 705.753 184.8C705.236 184.333 704.52 184.1 703.603 184.1C701.77 184.1 700.678 184.992 700.328 186.775L698.578 186.25C698.845 185.017 699.403 184.058 700.253 183.375C701.103 182.692 702.253 182.35 703.703 182.35C705.17 182.35 706.336 182.667 707.203 183.3ZM702.053 195.7C703.553 195.7 705.053 194.892 706.553 193.275V190.275L703.028 190.875C701.845 191.092 701.028 191.433 700.578 191.9C700.128 192.35 699.903 192.908 699.903 193.575C699.903 194.225 700.078 194.742 700.428 195.125C700.778 195.508 701.32 195.7 702.053 195.7ZM718.927 189.025C720.427 189.392 721.493 189.883 722.127 190.5C722.777 191.1 723.102 192.008 723.102 193.225C723.102 194.425 722.652 195.4 721.752 196.15C720.852 196.9 719.518 197.275 717.752 197.275C715.985 197.275 714.702 196.942 713.902 196.275C713.118 195.592 712.618 194.608 712.402 193.325L714.152 193.05C714.402 194.733 715.543 195.575 717.577 195.575C719.827 195.575 720.952 194.817 720.952 193.3C720.952 192.633 720.743 192.142 720.327 191.825C719.927 191.508 719.202 191.217 718.152 190.95L716.727 190.6C715.277 190.233 714.243 189.75 713.627 189.15C713.027 188.55 712.727 187.642 712.727 186.425C712.727 185.192 713.16 184.208 714.027 183.475C714.893 182.725 716.168 182.35 717.852 182.35C719.552 182.35 720.777 182.692 721.527 183.375C722.293 184.042 722.785 185.017 723.002 186.3L721.227 186.575C721.01 184.892 719.943 184.05 718.027 184.05C715.927 184.05 714.877 184.808 714.877 186.325C714.877 186.992 715.068 187.492 715.452 187.825C715.835 188.142 716.51 188.425 717.477 188.675L718.927 189.025ZM727.057 182.7H729.207V197H727.057V182.7ZM728.132 180.3C727.282 180.3 726.857 179.842 726.857 178.925C726.857 177.992 727.282 177.525 728.132 177.525C729.016 177.525 729.457 177.992 729.457 178.925C729.457 179.842 729.016 180.3 728.132 180.3ZM739.279 197.35C737.095 197.35 735.537 196.733 734.604 195.5C733.67 194.25 733.204 192.367 733.204 189.85C733.204 184.85 735.195 182.35 739.179 182.35C743.112 182.35 745.079 184.75 745.079 189.55V190.075H735.329C735.345 192.042 735.645 193.458 736.229 194.325C736.812 195.175 737.829 195.6 739.279 195.6C741.645 195.6 742.912 194.642 743.079 192.725L744.854 192.825C744.537 195.842 742.679 197.35 739.279 197.35ZM742.929 188.475C742.845 187.075 742.529 186 741.979 185.25C741.429 184.483 740.504 184.1 739.204 184.1C737.904 184.1 736.97 184.492 736.404 185.275C735.837 186.042 735.495 187.108 735.379 188.475H742.929ZM754.132 189.025C755.632 189.392 756.698 189.883 757.332 190.5C757.982 191.1 758.307 192.008 758.307 193.225C758.307 194.425 757.857 195.4 756.957 196.15C756.057 196.9 754.723 197.275 752.957 197.275C751.19 197.275 749.907 196.942 749.107 196.275C748.323 195.592 747.823 194.608 747.607 193.325L749.357 193.05C749.607 194.733 750.748 195.575 752.782 195.575C755.032 195.575 756.157 194.817 756.157 193.3C756.157 192.633 755.948 192.142 755.532 191.825C755.132 191.508 754.407 191.217 753.357 190.95L751.932 190.6C750.482 190.233 749.448 189.75 748.832 189.15C748.232 188.55 747.932 187.642 747.932 186.425C747.932 185.192 748.365 184.208 749.232 183.475C750.098 182.725 751.373 182.35 753.057 182.35C754.757 182.35 755.982 182.692 756.732 183.375C757.498 184.042 757.99 185.017 758.207 186.3L756.432 186.575C756.215 184.892 755.148 184.05 753.232 184.05C751.132 184.05 750.082 184.808 750.082 186.325C750.082 186.992 750.273 187.492 750.657 187.825C751.04 188.142 751.715 188.425 752.682 188.675L754.132 189.025ZM760.137 184.175V182.7H762.587V180.1L764.737 179.25V182.7H767.762V184.175H764.737V193.65C764.737 194.4 764.837 194.933 765.037 195.25C765.254 195.55 765.562 195.7 765.962 195.7C766.362 195.7 766.854 195.633 767.437 195.5L767.687 196.95C766.787 197.217 766.021 197.35 765.387 197.35C764.771 197.35 764.262 197.25 763.862 197.05C763.462 196.85 763.179 196.55 763.012 196.15C762.729 195.55 762.587 194.742 762.587 193.725V184.175H760.137ZM781.881 197H779.656L776.006 182.7H778.181L780.931 194.25L783.856 183.95H785.706L788.656 194.25L791.406 182.7H793.581L789.931 197H787.731L784.781 187L781.881 197ZM804.859 183.3C805.859 184.017 806.359 185.367 806.359 187.35V197H804.934L804.384 194.775C802.784 196.492 801.026 197.35 799.109 197.35C797.843 197.35 796.909 197.017 796.309 196.35C795.726 195.683 795.434 194.783 795.434 193.65C795.434 192.517 795.784 191.6 796.484 190.9C797.201 190.2 798.534 189.692 800.484 189.375L804.209 188.775V187.35C804.209 186.117 803.943 185.267 803.409 184.8C802.893 184.333 802.176 184.1 801.259 184.1C799.426 184.1 798.334 184.992 797.984 186.775L796.234 186.25C796.501 185.017 797.059 184.058 797.909 183.375C798.759 182.692 799.909 182.35 801.359 182.35C802.826 182.35 803.993 182.667 804.859 183.3ZM799.709 195.7C801.209 195.7 802.709 194.892 804.209 193.275V190.275L800.684 190.875C799.501 191.092 798.684 191.433 798.234 191.9C797.784 192.35 797.559 192.908 797.559 193.575C797.559 194.225 797.734 194.742 798.084 195.125C798.434 195.508 798.976 195.7 799.709 195.7ZM814.308 203.125L812.358 202.775L814.558 197.1L809.158 182.7H811.383L815.608 194.275L819.708 182.7H821.908L814.308 203.125ZM830.108 184.175V182.7H832.558V180.1L834.708 179.25V182.7H837.733V184.175H834.708V193.65C834.708 194.4 834.808 194.933 835.008 195.25C835.225 195.55 835.533 195.7 835.933 195.7C836.333 195.7 836.825 195.633 837.408 195.5L837.658 196.95C836.758 197.217 835.991 197.35 835.358 197.35C834.741 197.35 834.233 197.25 833.833 197.05C833.433 196.85 833.15 196.55 832.983 196.15C832.7 195.55 832.558 194.742 832.558 193.725V184.175H830.108ZM843.651 195.15C844.218 195.45 844.918 195.6 845.751 195.6C846.585 195.6 847.276 195.45 847.826 195.15C848.393 194.833 848.81 194.392 849.076 193.825C849.343 193.242 849.526 192.642 849.626 192.025C849.743 191.392 849.801 190.667 849.801 189.85C849.801 189.033 849.743 188.317 849.626 187.7C849.526 187.067 849.343 186.467 849.076 185.9C848.81 185.317 848.393 184.875 847.826 184.575C847.276 184.258 846.585 184.1 845.751 184.1C844.918 184.1 844.218 184.258 843.651 184.575C843.101 184.875 842.685 185.317 842.401 185.9C842.135 186.467 841.951 187.058 841.851 187.675C841.751 188.292 841.701 189.017 841.701 189.85C841.701 190.683 841.751 191.408 841.851 192.025C841.951 192.642 842.135 193.242 842.401 193.825C842.685 194.392 843.101 194.833 843.651 195.15ZM851.951 189.85C851.951 194.85 849.885 197.35 845.751 197.35C841.618 197.35 839.551 194.85 839.551 189.85C839.551 184.85 841.618 182.35 845.751 182.35C849.885 182.35 851.951 184.85 851.951 189.85ZM867.69 179.325C866.39 179.325 865.74 180.083 865.74 181.6V182.7H869.04V184.175H865.74V197H863.59V184.175H861.94V182.7H863.59V181.6C863.59 178.95 864.907 177.625 867.54 177.625C868.523 177.625 869.407 177.767 870.19 178.05L869.64 179.675C869.073 179.442 868.423 179.325 867.69 179.325ZM876.412 197.35C874.229 197.35 872.671 196.733 871.737 195.5C870.804 194.25 870.337 192.367 870.337 189.85C870.337 184.85 872.329 182.35 876.312 182.35C880.246 182.35 882.212 184.75 882.212 189.55V190.075H872.462C872.479 192.042 872.779 193.458 873.362 194.325C873.946 195.175 874.962 195.6 876.412 195.6C878.779 195.6 880.046 194.642 880.212 192.725L881.987 192.825C881.671 195.842 879.812 197.35 876.412 197.35ZM880.062 188.475C879.979 187.075 879.662 186 879.112 185.25C878.562 184.483 877.637 184.1 876.337 184.1C875.037 184.1 874.104 184.492 873.537 185.275C872.971 186.042 872.629 187.108 872.512 188.475H880.062ZM890.865 197.35C888.682 197.35 887.124 196.733 886.19 195.5C885.257 194.25 884.79 192.367 884.79 189.85C884.79 184.85 886.782 182.35 890.765 182.35C894.699 182.35 896.665 184.75 896.665 189.55V190.075H886.915C886.932 192.042 887.232 193.458 887.815 194.325C888.399 195.175 889.415 195.6 890.865 195.6C893.232 195.6 894.499 194.642 894.665 192.725L896.44 192.825C896.124 195.842 894.265 197.35 890.865 197.35ZM894.515 188.475C894.432 187.075 894.115 186 893.565 185.25C893.015 184.483 892.09 184.1 890.79 184.1C889.49 184.1 888.557 184.492 887.99 185.275C887.424 186.042 887.082 187.108 886.965 188.475H894.515ZM903.844 197.35C900.777 197.35 899.244 194.85 899.244 189.85C899.244 184.85 901.102 182.35 904.819 182.35C906.102 182.35 907.419 182.675 908.769 183.325V178.05L910.919 177.8V197H909.494L908.869 194.825C907.352 196.508 905.677 197.35 903.844 197.35ZM904.544 195.6C906.044 195.6 907.452 194.8 908.769 193.2V185.025C907.569 184.375 906.394 184.05 905.244 184.05C903.844 184.05 902.852 184.558 902.269 185.575C901.685 186.592 901.394 188.017 901.394 189.85C901.394 193.683 902.444 195.6 904.544 195.6ZM926.268 195.15C926.835 195.45 927.535 195.6 928.368 195.6C929.202 195.6 929.893 195.45 930.443 195.15C931.01 194.833 931.427 194.392 931.693 193.825C931.96 193.242 932.143 192.642 932.243 192.025C932.36 191.392 932.418 190.667 932.418 189.85C932.418 189.033 932.36 188.317 932.243 187.7C932.143 187.067 931.96 186.467 931.693 185.9C931.427 185.317 931.01 184.875 930.443 184.575C929.893 184.258 929.202 184.1 928.368 184.1C927.535 184.1 926.835 184.258 926.268 184.575C925.718 184.875 925.302 185.317 925.018 185.9C924.752 186.467 924.568 187.058 924.468 187.675C924.368 188.292 924.318 189.017 924.318 189.85C924.318 190.683 924.368 191.408 924.468 192.025C924.568 192.642 924.752 193.242 925.018 193.825C925.302 194.392 925.718 194.833 926.268 195.15ZM934.568 189.85C934.568 194.85 932.502 197.35 928.368 197.35C924.235 197.35 922.168 194.85 922.168 189.85C922.168 184.85 924.235 182.35 928.368 182.35C932.502 182.35 934.568 184.85 934.568 189.85ZM942.531 197.35C941.048 197.35 939.973 196.983 939.306 196.25C938.64 195.5 938.306 194.383 938.306 192.9V182.7H940.456V192.75C940.456 193.733 940.665 194.458 941.081 194.925C941.515 195.375 942.181 195.6 943.081 195.6C944.698 195.6 946.206 194.775 947.606 193.125V182.7H949.756V197H948.331L947.656 194.875C946.106 196.525 944.398 197.35 942.531 197.35ZM957.21 197H955.06V182.7H956.335L957.11 185.25C958.277 183.4 959.985 182.433 962.235 182.35V184.325C959.985 184.408 958.31 185.358 957.21 187.175V197ZM974.495 197H972.345V178.05L974.495 177.75V197ZM982.592 195.15C983.158 195.45 983.858 195.6 984.692 195.6C985.525 195.6 986.217 195.45 986.767 195.15C987.333 194.833 987.75 194.392 988.017 193.825C988.283 193.242 988.467 192.642 988.567 192.025C988.683 191.392 988.742 190.667 988.742 189.85C988.742 189.033 988.683 188.317 988.567 187.7C988.467 187.067 988.283 186.467 988.017 185.9C987.75 185.317 987.333 184.875 986.767 184.575C986.217 184.258 985.525 184.1 984.692 184.1C983.858 184.1 983.158 184.258 982.592 184.575C982.042 184.875 981.625 185.317 981.342 185.9C981.075 186.467 980.892 187.058 980.792 187.675C980.692 188.292 980.642 189.017 980.642 189.85C980.642 190.683 980.692 191.408 980.792 192.025C980.892 192.642 981.075 193.242 981.342 193.825C981.625 194.392 982.042 194.833 982.592 195.15ZM990.892 189.85C990.892 194.85 988.825 197.35 984.692 197.35C980.558 197.35 978.492 194.85 978.492 189.85C978.492 184.85 980.558 182.35 984.692 182.35C988.825 182.35 990.892 184.85 990.892 189.85ZM1000.05 197H997.704L992.629 182.7H994.804L998.879 194.5L1002.95 182.7H1005.13L1000.05 197ZM1012.96 197.35C1010.78 197.35 1009.22 196.733 1008.29 195.5C1007.35 194.25 1006.89 192.367 1006.89 189.85C1006.89 184.85 1008.88 182.35 1012.86 182.35C1016.79 182.35 1018.76 184.75 1018.76 189.55V190.075H1009.01C1009.03 192.042 1009.33 193.458 1009.91 194.325C1010.49 195.175 1011.51 195.6 1012.96 195.6C1015.33 195.6 1016.59 194.642 1016.76 192.725L1018.54 192.825C1018.22 195.842 1016.36 197.35 1012.96 197.35ZM1016.61 188.475C1016.53 187.075 1016.21 186 1015.66 185.25C1015.11 184.483 1014.19 184.1 1012.89 184.1C1011.59 184.1 1010.65 184.492 1010.09 185.275C1009.52 186.042 1009.18 187.108 1009.06 188.475H1016.61ZM1024.79 197H1022.64V178.05L1024.79 177.75V197ZM1032.98 203.125L1031.03 202.775L1033.23 197.1L1027.83 182.7H1030.06L1034.28 194.275L1038.38 182.7H1040.58L1032.98 203.125ZM1051.76 189.85C1051.76 190.667 1051.81 191.392 1051.91 192.025C1052.01 192.658 1052.19 193.258 1052.46 193.825C1053.01 195.008 1054.05 195.6 1055.58 195.6C1056.83 195.6 1057.73 195.358 1058.26 194.875C1058.81 194.375 1059.11 193.642 1059.16 192.675L1060.91 192.75C1060.79 194.233 1060.33 195.375 1059.51 196.175C1058.69 196.958 1057.36 197.35 1055.51 197.35C1052.89 197.35 1051.16 196.283 1050.31 194.15C1049.84 192.983 1049.61 191.708 1049.61 190.325C1049.61 188.942 1049.69 187.842 1049.86 187.025C1050.03 186.192 1050.32 185.4 1050.73 184.65C1051.6 183.117 1053.19 182.35 1055.51 182.35C1057.36 182.35 1058.69 182.733 1059.51 183.5C1060.33 184.25 1060.78 185.342 1060.88 186.775L1059.16 187.025C1059.11 186.058 1058.81 185.333 1058.26 184.85C1057.73 184.35 1056.83 184.1 1055.58 184.1C1054.05 184.1 1053.01 184.692 1052.46 185.875C1051.99 186.858 1051.76 188.183 1051.76 189.85ZM1072.75 183.3C1073.75 184.017 1074.25 185.367 1074.25 187.35V197H1072.83L1072.28 194.775C1070.68 196.492 1068.92 197.35 1067 197.35C1065.74 197.35 1064.8 197.017 1064.2 196.35C1063.62 195.683 1063.33 194.783 1063.33 193.65C1063.33 192.517 1063.68 191.6 1064.38 190.9C1065.1 190.2 1066.43 189.692 1068.38 189.375L1072.1 188.775V187.35C1072.1 186.117 1071.84 185.267 1071.3 184.8C1070.79 184.333 1070.07 184.1 1069.15 184.1C1067.32 184.1 1066.23 184.992 1065.88 186.775L1064.13 186.25C1064.4 185.017 1064.95 184.058 1065.8 183.375C1066.65 182.692 1067.8 182.35 1069.25 182.35C1070.72 182.35 1071.89 182.667 1072.75 183.3ZM1067.6 195.7C1069.1 195.7 1070.6 194.892 1072.1 193.275V190.275L1068.58 190.875C1067.4 191.092 1066.58 191.433 1066.13 191.9C1065.68 192.35 1065.45 192.908 1065.45 193.575C1065.45 194.225 1065.63 194.742 1065.98 195.125C1066.33 195.508 1066.87 195.7 1067.6 195.7ZM1077.18 184.175V182.7H1079.63V180.1L1081.78 179.25V182.7H1084.8V184.175H1081.78V193.65C1081.78 194.4 1081.88 194.933 1082.08 195.25C1082.29 195.55 1082.6 195.7 1083 195.7C1083.4 195.7 1083.89 195.633 1084.48 195.5L1084.73 196.95C1083.83 197.217 1083.06 197.35 1082.43 197.35C1081.81 197.35 1081.3 197.25 1080.9 197.05C1080.5 196.85 1080.22 196.55 1080.05 196.15C1079.77 195.55 1079.63 194.742 1079.63 193.725V184.175H1077.18Z" fill="black"/>
</svg>
