<svg width="29" height="27" viewBox="0 0 29 27" fill="none" xmlns="http://www.w3.org/2000/svg">
<path d="M1.00763 12.2944C0.832913 9.58628 3.70123 8.25404 5.15723 7.92644C5.15723 6.39784 5.37562 5.4151 5.59399 4.43243L5.59408 4.43204C5.81248 3.44924 7.01368 1.81124 9.52528 1.04684C11.5346 0.435317 13.7113 1.59284 14.5485 2.24804C14.9489 1.92044 15.9026 1.2434 16.5141 1.15604C17.2785 1.04684 18.8073 0.282436 21.7557 2.02964C24.7041 3.77684 23.8305 7.27124 24.0489 7.81724C24.2673 8.36324 25.2501 8.14484 25.7961 8.58164C26.3421 9.01844 27.5433 9.45524 28.3077 12.2944C29.0721 15.1336 26.2329 18.3004 25.4685 18.8464C24.7041 19.3924 24.5949 20.0476 24.2673 20.7028C23.9397 21.358 22.3017 23.542 21.6465 24.088C20.9913 24.634 19.3533 25.3984 17.2785 25.726C15.2037 26.0536 10.3989 26.3812 7.66888 24.088C4.93888 21.7948 5.48488 20.5936 3.95608 18.8464C2.42728 17.0992 1.22603 15.6796 1.00763 12.2944Z" fill="white" stroke="white"/>
<path d="M11.9277 13.714C12.6266 11.7921 13.6749 10.9476 14.1117 10.7656C14.366 10.6676 14.9857 10.6523 15.4222 10.7656C15.9507 10.9027 16.394 11.508 16.951 12.622C17.3878 13.4956 17.2786 14.26 18.3706 15.1336C19.4626 16.0072 20.3362 17.4268 20.3362 18.1912C20.3362 18.9556 20.227 19.3924 19.681 20.0476C19.135 20.7028 16.7326 20.4844 15.9682 20.0476C15.2038 19.6108 14.1117 19.9384 13.675 20.0476C13.2383 20.1568 11.491 20.4844 11.2726 20.4844C11.0542 20.4844 9.52535 20.1568 9.19775 18.1912C8.87015 16.2256 11.0541 16.1164 11.9277 13.714Z" fill="#E8B9C4" stroke="#E8B9C4"/>
<ellipse cx="10.8781" cy="6.73044" rx="2.73" ry="3.1668" transform="rotate(-17.0167 10.8781 6.73044)" fill="#E8B9C4"/>
<ellipse cx="22.8262" cy="13.4176" rx="2.73" ry="3.1668" transform="rotate(40.054 22.8262 13.4176)" fill="#E8B9C4"/>
<ellipse cx="6.51124" cy="13.2824" rx="2.73" ry="3.1668" transform="rotate(-34.2084 6.51124 13.2824)" fill="#E8B9C4"/>
<ellipse cx="18.4256" cy="6.82014" rx="2.73" ry="3.1668" transform="rotate(20.2929 18.4256 6.82014)" fill="#E8B9C4"/>
</svg>
