<svg width="1095" height="711" viewBox="0 0 1095 711" fill="none" xmlns="http://www.w3.org/2000/svg">
<mask id="mask0_215_52" style="mask-type:alpha" maskUnits="userSpaceOnUse" x="0" y="0" width="1095" height="711">
<rect width="1095" height="711" fill="#C4C4C4"/>
</mask>
<g mask="url(#mask0_215_52)">
<path d="M312.376 2341.74C259.497 2310.01 127.298 1517.49 74.4189 1138.42C21.5394 759.351 61.199 239.234 166.958 40.8841C181.888 12.8818 378.475 159.894 444.574 252.457H682.531C682.531 252.457 775.07 107.001 933.708 40.8841C1079.13 305.351 1052.69 873.953 1039.47 1138.42L761.401 1693.8H537.113V2473.98H219.837C206.617 2473.98 206.617 2447.53 219.837 2407.86C230.413 2376.12 285.936 2350.56 312.376 2341.74Z" fill="#3F3F3F"/>
<path d="M921.723 73.6228C938.615 80.7802 952.313 154.469 961.893 227.773C962.566 232.927 957.566 236.882 952.611 235.311C934.941 229.709 941.916 236.825 965.114 281.49C967.169 285.447 964.995 290.222 960.747 291.578C942.145 297.517 942.172 306.574 977.371 379.965C1013.37 455.026 758.033 307.266 708.099 277.858C703.7 275.268 702.73 269.495 706.125 265.683C739.251 228.482 891.052 60.6271 921.723 73.6228Z" fill="#222222"/>
<path d="M173.85 62.7526C156.958 69.9099 143.259 143.598 133.68 216.903C133.007 222.057 138.007 226.012 142.962 224.441C160.632 218.838 153.657 225.955 130.459 270.62C128.403 274.577 130.578 279.352 134.826 280.708C153.428 286.647 153.4 295.704 118.201 369.095C82.2012 444.156 337.539 296.396 387.474 266.988C391.872 264.398 392.843 258.625 389.448 254.813C356.322 217.612 204.521 49.7569 173.85 62.7526Z" fill="#222222"/>
<path d="M1073.64 713.5C1055.53 670.845 1111.04 620.539 1083.61 574.963C1038.58 515.363 1157.78 585.48 1033.52 471.576C1007.04 415.642 968.215 364.82 919.274 322.01C870.333 279.2 812.232 245.241 748.287 222.073C684.343 198.904 615.808 186.98 546.595 186.98C477.382 186.98 408.846 198.904 344.902 222.073C280.957 245.242 222.856 279.2 173.915 322.01C124.974 364.82 86.1515 415.643 59.6648 471.576C47.302 497.684 -21.3565 573.21 31.0569 552.174C-38.8858 640.406 44.0866 650.979 19.5456 713.5L1073.64 713.5Z" fill="#3F3F3F"/>
<path d="M853.943 468.034C853.943 518.699 812.871 559.771 762.206 559.771C711.541 559.771 670.469 518.699 670.469 468.034C670.469 417.369 711.541 376.297 762.206 376.297C812.871 376.297 853.943 417.369 853.943 468.034Z" fill="white"/>
<path d="M848.099 459.853C848.099 506 810.952 543.41 765.127 543.41C719.303 543.41 682.155 506 682.155 459.853C682.155 413.706 719.303 376.297 765.127 376.297C810.952 376.297 848.099 413.706 848.099 459.853Z" fill="black"/>
<path d="M848.099 459.853C848.099 506 810.952 543.41 765.127 543.41C719.303 543.41 682.155 506 682.155 459.853C682.155 413.706 719.303 376.297 765.127 376.297C810.952 376.297 848.099 413.706 848.099 459.853Z" fill="black"/>
<path d="M848.099 459.853C848.099 506 810.952 543.41 765.127 543.41C719.303 543.41 682.155 506 682.155 459.853C682.155 413.706 719.303 376.297 765.127 376.297C810.952 376.297 848.099 413.706 848.099 459.853Z" fill="black"/>
<path d="M733.574 416.614C733.574 426.618 725.203 434.728 714.876 434.728C704.55 434.728 696.178 426.618 696.178 416.614C696.178 406.61 704.55 398.501 714.876 398.501C725.203 398.501 733.574 406.61 733.574 416.614Z" fill="black"/>
<path d="M733.574 416.614C733.574 426.618 725.203 434.728 714.876 434.728C704.55 434.728 696.178 426.618 696.178 416.614C696.178 406.61 704.55 398.501 714.876 398.501C725.203 398.501 733.574 406.61 733.574 416.614Z" fill="black"/>
<path d="M733.574 416.614C733.574 426.618 725.203 434.728 714.876 434.728C704.55 434.728 696.178 426.618 696.178 416.614C696.178 406.61 704.55 398.501 714.876 398.501C725.203 398.501 733.574 406.61 733.574 416.614Z" fill="#FEFEFE"/>
<path d="M439.081 468.034C439.081 518.699 398.009 559.771 347.344 559.771C296.68 559.771 255.607 518.699 255.607 468.034C255.607 417.369 296.68 376.297 347.344 376.297C398.009 376.297 439.081 417.369 439.081 468.034Z" fill="white"/>
<path d="M433.238 459.853C433.238 506 396.09 543.41 350.266 543.41C304.442 543.41 267.294 506 267.294 459.853C267.294 413.706 304.442 376.297 350.266 376.297C396.09 376.297 433.238 413.706 433.238 459.853Z" fill="black"/>
<path d="M433.238 459.853C433.238 506 396.09 543.41 350.266 543.41C304.442 543.41 267.294 506 267.294 459.853C267.294 413.706 304.442 376.297 350.266 376.297C396.09 376.297 433.238 413.706 433.238 459.853Z" fill="black"/>
<path d="M433.238 459.853C433.238 506 396.09 543.41 350.266 543.41C304.442 543.41 267.294 506 267.294 459.853C267.294 413.706 304.442 376.297 350.266 376.297C396.09 376.297 433.238 413.706 433.238 459.853Z" fill="black"/>
<path d="M318.713 416.614C318.713 426.618 310.342 434.728 300.015 434.728C289.689 434.728 281.317 426.618 281.317 416.614C281.317 406.61 289.689 398.501 300.015 398.501C310.342 398.501 318.713 406.61 318.713 416.614Z" fill="black"/>
<path d="M318.713 416.614C318.713 426.618 310.342 434.728 300.015 434.728C289.689 434.728 281.317 426.618 281.317 416.614C281.317 406.61 289.689 398.501 300.015 398.501C310.342 398.501 318.713 406.61 318.713 416.614Z" fill="black"/>
<path d="M318.713 416.614C318.713 426.618 310.342 434.728 300.015 434.728C289.689 434.728 281.317 426.618 281.317 416.614C281.317 406.61 289.689 398.501 300.015 398.501C310.342 398.501 318.713 406.61 318.713 416.614Z" fill="#FEFEFE"/>
<path d="M571.501 692.936C562.331 705.845 543.25 706.091 533.749 693.424L482.202 624.694C470.73 609.398 481.479 587.548 500.598 587.3L601.898 585.991C621.018 585.744 632.328 607.309 621.254 622.897L571.501 692.936Z" fill="#222222"/>
</g>
</svg>
