<svg width="1768" height="1019" viewBox="0 0 1768 1019" fill="none" xmlns="http://www.w3.org/2000/svg">
<mask id="mask0_202_12" style="mask-type:alpha" maskUnits="userSpaceOnUse" x="0" y="0" width="1768" height="1019">
<rect width="1768" height="1018.91" fill="#C4C4C4"/>
</mask>
<g mask="url(#mask0_202_12)">
<path d="M504.366 3781C418.987 3729.76 205.537 2450.15 120.158 1838.11C34.778 1226.06 98.8128 386.27 269.572 66.0118C293.679 20.7989 611.091 258.167 717.815 407.62H1102.02C1102.02 407.62 1251.44 172.764 1507.58 66.0118C1742.37 493.022 1699.68 1411.1 1678.34 1838.11L1229.37 2734.83H867.229V3994.51H354.952C333.607 3994.51 333.607 3951.81 354.952 3887.76C372.028 3836.52 461.676 3795.24 504.366 3781Z" fill="#3F3F3F"/>
<path d="M1488.23 118.872C1516.03 130.653 1538.47 254.065 1553.98 374.653C1554.64 379.809 1549.6 383.813 1544.68 382.126C1507.38 369.324 1518.63 377.651 1560.75 459.264C1562.8 463.226 1560.63 468.059 1556.34 469.266C1521.36 479.101 1518.18 488.621 1578.08 613.496C1636.2 734.69 1223.93 496.115 1143.3 448.633C1136.2 444.451 1134.64 435.13 1140.12 428.975C1193.6 368.91 1438.7 97.8891 1488.23 118.872Z" fill="#222222"/>
<path d="M280.7 101.321C252.897 113.102 230.452 236.513 214.949 357.102C214.286 362.258 219.327 366.262 224.243 364.574C261.547 351.773 250.293 360.1 208.172 441.712C206.127 445.675 208.292 450.507 212.585 451.714C247.567 461.55 250.741 471.07 190.849 595.945C132.723 717.139 544.995 478.564 625.62 431.082C632.722 426.899 634.289 417.579 628.808 411.424C575.321 351.359 330.221 80.3379 280.7 101.321Z" fill="#222222"/>
<path d="M1733.52 1046.27C1704.27 977.4 1793.9 1001.93 1749.62 928.341C1676.91 832.111 1869.37 945.323 1668.74 761.412C1625.98 671.101 1563.29 589.042 1484.27 519.921C1405.25 450.8 1311.44 395.97 1208.19 358.562C1104.95 321.153 994.291 301.9 882.539 301.9C770.786 301.9 660.128 321.153 556.883 358.562C453.637 395.97 359.826 450.8 280.805 519.921C201.784 589.042 139.101 671.101 96.3357 761.413C76.3747 803.566 -34.4823 925.511 50.145 891.547C-62.7852 1034.01 71.183 945.323 31.5588 1046.27L1733.52 1046.27Z" fill="#3F3F3F"/>
<path d="M1378.79 755.693C1378.79 837.497 1312.47 903.812 1230.67 903.812C1148.86 903.812 1082.55 837.497 1082.55 755.693C1082.55 673.888 1148.86 607.573 1230.67 607.573C1312.47 607.573 1378.79 673.888 1378.79 755.693Z" fill="white"/>
<path d="M1369.35 742.484C1369.35 816.994 1309.37 877.396 1235.38 877.396C1161.4 877.396 1101.42 816.994 1101.42 742.484C1101.42 667.975 1161.4 607.573 1235.38 607.573C1309.37 607.573 1369.35 667.975 1369.35 742.484Z" fill="#BB0000"/>
<path d="M1369.35 742.484C1369.35 816.994 1309.37 877.396 1235.38 877.396C1161.4 877.396 1101.42 816.994 1101.42 742.484C1101.42 667.975 1161.4 607.573 1235.38 607.573C1309.37 607.573 1369.35 667.975 1369.35 742.484Z" fill="#BB0000"/>
<path d="M1369.35 742.484C1369.35 816.994 1309.37 877.396 1235.38 877.396C1161.4 877.396 1101.42 816.994 1101.42 742.484C1101.42 667.975 1161.4 607.573 1235.38 607.573C1309.37 607.573 1369.35 667.975 1369.35 742.484Z" fill="#BB0000"/>
<path d="M1184.44 672.67C1184.44 688.823 1170.92 701.917 1154.25 701.917C1137.57 701.917 1124.06 688.823 1124.06 672.67C1124.06 656.518 1137.57 643.424 1154.25 643.424C1170.92 643.424 1184.44 656.518 1184.44 672.67Z" fill="#BB0000"/>
<path d="M1184.44 672.67C1184.44 688.823 1170.92 701.917 1154.25 701.917C1137.57 701.917 1124.06 688.823 1124.06 672.67C1124.06 656.518 1137.57 643.424 1154.25 643.424C1170.92 643.424 1184.44 656.518 1184.44 672.67Z" fill="#BB0000"/>
<path d="M1184.44 672.67C1184.44 688.823 1170.92 701.917 1154.25 701.917C1137.57 701.917 1124.06 688.823 1124.06 672.67C1124.06 656.518 1137.57 643.424 1154.25 643.424C1170.92 643.424 1184.44 656.518 1184.44 672.67Z" fill="#FEFEFE"/>
<path d="M708.946 755.693C708.946 837.497 642.631 903.812 560.827 903.812C479.022 903.812 412.707 837.497 412.707 755.693C412.707 673.888 479.022 607.573 560.827 607.573C642.631 607.573 708.946 673.888 708.946 755.693Z" fill="white"/>
<path d="M699.512 742.484C699.512 816.994 639.532 877.396 565.544 877.396C491.555 877.396 431.576 816.994 431.576 742.484C431.576 667.975 491.555 607.573 565.544 607.573C639.532 607.573 699.512 667.975 699.512 742.484Z" fill="#BB0000"/>
<path d="M699.512 742.484C699.512 816.994 639.532 877.396 565.544 877.396C491.555 877.396 431.576 816.994 431.576 742.484C431.576 667.975 491.555 607.573 565.544 607.573C639.532 607.573 699.512 667.975 699.512 742.484Z" fill="#BB0000"/>
<path d="M699.512 742.484C699.512 816.994 639.532 877.396 565.544 877.396C491.555 877.396 431.576 816.994 431.576 742.484C431.576 667.975 491.555 607.573 565.544 607.573C639.532 607.573 699.512 667.975 699.512 742.484Z" fill="#BB0000"/>
<path d="M514.598 672.67C514.598 688.823 501.082 701.917 484.408 701.917C467.735 701.917 454.218 688.823 454.218 672.67C454.218 656.518 467.735 643.424 484.408 643.424C501.082 643.424 514.598 656.518 514.598 672.67Z" fill="#BB0000"/>
<path d="M514.598 672.67C514.598 688.823 501.082 701.917 484.408 701.917C467.735 701.917 454.218 688.823 454.218 672.67C454.218 656.518 467.735 643.424 484.408 643.424C501.082 643.424 514.598 656.518 514.598 672.67Z" fill="#BB0000"/>
<path d="M514.598 672.67C514.598 688.823 501.082 701.917 484.408 701.917C467.735 701.917 454.218 688.823 454.218 672.67C454.218 656.518 467.735 643.424 484.408 643.424C501.082 643.424 514.598 656.518 514.598 672.67Z" fill="#FEFEFE"/>
<path d="M922.753 1118.82C907.947 1139.67 877.138 1140.06 861.798 1119.61L778.57 1008.64C760.046 983.94 777.401 948.661 808.272 948.262L971.832 946.148C1002.7 945.749 1020.96 980.568 1003.09 1005.74L922.753 1118.82Z" fill="#222222"/>
</g>
<circle cx="566" cy="743.5" r="132.5" fill="url(#paint0_linear_202_12)" stroke="black" stroke-width="6"/>
<circle cx="565.495" cy="744.006" r="80.4235" fill="url(#paint1_linear_202_12)" stroke="black" stroke-width="6"/>
<circle cx="566" cy="744.511" r="32.3918" fill="url(#paint2_linear_202_12)" stroke="black" stroke-width="6"/>
<circle cx="486" cy="666.784" r="25" fill="white"/>
<circle cx="1236" cy="743.5" r="133.5" fill="url(#paint3_linear_202_12)" stroke="black" stroke-width="6"/>
<circle cx="1235.49" cy="744.009" r="81.0392" fill="url(#paint4_linear_202_12)" stroke="black" stroke-width="6"/>
<circle cx="1236" cy="744.518" r="32.653" fill="url(#paint5_linear_202_12)" stroke="black" stroke-width="6"/>
<circle cx="1155.22" cy="666" r="25" fill="white"/>
<path d="M579.484 106.203C581.922 98.6094 583.891 91.1094 585.391 83.7031C586.891 76.2031 588.297 68.6562 589.609 61.0625C589.891 59.4688 590.547 58.2031 591.578 57.2656C592.703 56.3281 593.969 55.8594 595.375 55.8594C596.969 55.8594 598.281 56.4219 599.312 57.5469C600.438 58.6719 601 60.2656 601 62.3281C599.5 72.1719 597.484 82.0625 594.953 92C592.422 101.844 589.938 111.172 587.5 119.984C586.938 122.047 586.328 123.781 585.672 125.188C585.016 126.5 583.609 127.391 581.453 127.859H581.031C579.438 127.766 578.453 127.531 578.078 127.156L577.094 126.172C575.406 123.828 574.188 121.625 573.438 119.562C572.688 117.406 571.938 115.25 571.188 113.094C569.875 110.188 568.281 106.953 566.406 103.391C564.625 99.7344 562.984 95.9375 561.484 92L560.5 89.3281C558.812 92.9844 557.312 96.5 556 99.875C554.688 103.25 553.422 106.578 552.203 109.859C551.078 113.141 549.906 116.422 548.688 119.703C547.469 122.984 546.109 126.312 544.609 129.688C543.578 131.094 542.125 132.031 540.25 132.5H539.828C538.141 132.312 536.688 131.703 535.469 130.672C534.25 129.734 533.547 128.469 533.359 126.875C532.141 121.531 531.109 116.281 530.266 111.125C529.422 105.875 528.391 100.719 527.172 95.6562C524.922 87.6875 522.859 79.8594 520.984 72.1719C519.109 64.4844 517.609 56.375 516.484 47.8438C516.391 47.5625 516.344 47.1875 516.344 46.7188C516.344 45.125 516.859 43.7656 517.891 42.6406C519.016 41.5156 520.375 40.9531 521.969 40.9531C523.094 40.9531 524.219 41.3281 525.344 42.0781C526.469 42.8281 527.266 44.0469 527.734 45.7344C528.859 54.1719 530.359 62.1875 532.234 69.7812C534.109 77.2812 536.125 85.0625 538.281 93.125L541.375 107.891L541.938 105.078L544.609 97.4844C546.203 92.9844 547.844 88.5781 549.531 84.2656C551.219 79.9531 552.953 75.5469 554.734 71.0469C554.922 70.6719 555.062 70.0625 555.156 69.2188C555.344 68.2812 555.625 67.3906 556 66.5469C556.469 65.6094 557.078 64.8125 557.828 64.1562C558.672 63.5 559.891 63.125 561.484 63.0312H561.766C564.297 63.6875 565.938 65.4688 566.688 68.375L566.828 71.0469C567.016 74.4219 567.906 78.125 569.5 82.1562C571.094 86.1875 572.781 90.1719 574.562 94.1094C575.312 96.3594 576.062 98.5156 576.812 100.578C577.656 102.547 578.547 104.422 579.484 106.203ZM612.953 51.3594C611.547 50.8906 610.562 50.1406 610 49.1094C609.438 48.0781 609.156 47 609.156 45.875C609.156 44.5625 609.719 43.3438 610.844 42.2188C611.969 41 613.375 40.3906 615.062 40.3906C618.062 40.3906 620.5 41.0469 622.375 42.3594C624.25 43.6719 625.703 45.3594 626.734 47.4219C627.766 49.3906 628.469 51.5937 628.844 54.0312C629.219 56.375 629.406 58.5781 629.406 60.6406V64.4375C629.406 69.5938 629.594 74.5625 629.969 79.3438C630.344 84.0312 630.719 88.4844 631.094 92.7031C634.094 89.7031 637.047 87.2656 639.953 85.3906C642.859 83.4219 646.281 82.4375 650.219 82.4375C653.125 82.4375 655.562 83.0469 657.531 84.2656C659.594 85.4844 661.328 87.125 662.734 89.1875C664.141 91.1562 665.266 93.5 666.109 96.2188C666.953 98.8438 667.609 101.609 668.078 104.516C668.547 107.328 668.922 110.188 669.203 113.094C669.484 116 669.766 118.672 670.047 121.109C670.047 122.984 669.484 124.438 668.359 125.469C667.234 126.5 665.969 127.016 664.562 127.016C662.594 127.016 661.141 126.359 660.203 125.047C659.266 123.734 658.609 122.094 658.234 120.125C657.953 118.062 657.812 115.859 657.812 113.516C657.812 111.078 657.672 108.734 657.391 106.484C656.734 103.672 655.938 101.141 655 98.8906C654.062 96.6406 652.656 94.8594 650.781 93.5469C647.219 93.9219 644.266 95.3281 641.922 97.7656C639.578 100.203 637.703 103.156 636.297 106.625C634.891 110 633.906 113.656 633.344 117.594C632.781 121.438 632.5 124.953 632.5 128.141C632.5 129.828 631.891 131.188 630.672 132.219C629.547 133.25 628.328 133.766 627.016 133.766C625.703 133.766 624.391 133.344 623.078 132.5C621.859 131.656 621.156 130.203 620.969 128.141C620.969 119.328 620.688 110.656 620.125 102.125C619.656 93.5 619.094 84.9219 618.438 76.3906C618.156 72.1719 617.875 68 617.594 63.875C617.406 59.75 616.984 56 616.328 52.625C615.859 52.5313 614.734 52.1094 612.953 51.3594ZM690.156 75.9688C688.844 74.4688 688.188 73.0156 688.188 71.6094C688.188 70.0156 688.656 68.6562 689.594 67.5312C690.625 66.4062 691.938 65.8438 693.531 65.8438C694.75 65.8438 695.969 66.2188 697.188 66.9688C698.406 67.625 699.531 68.4688 700.562 69.5C701.594 70.4375 702.484 71.375 703.234 72.3125C703.984 73.25 704.453 73.9062 704.641 74.2812C704.828 74.1875 705.25 74.1406 705.906 74.1406C707.688 74.1406 709.375 74.6094 710.969 75.5469C712.656 76.3906 714.156 77.5156 715.469 78.9219C716.875 80.3281 718.094 81.8281 719.125 83.4219C720.156 85.0156 721.047 86.5156 721.797 87.9219C722.547 89.3281 723.203 90.875 723.766 92.5625C724.422 94.1562 724.938 95.7969 725.312 97.4844C725.688 99.1719 725.969 100.812 726.156 102.406C726.344 104 726.438 105.453 726.438 106.766C726.438 110.609 725.922 114.219 724.891 117.594C723.953 120.875 722.359 123.781 720.109 126.312C717.953 128.844 715.094 130.812 711.531 132.219C707.969 133.719 703.609 134.469 698.453 134.469C694.703 134.469 691.609 133.344 689.172 131.094C686.828 128.844 685 126.219 683.688 123.219C682.375 120.125 681.438 116.984 680.875 113.797C680.406 110.609 680.172 108.031 680.172 106.062C680.172 104.188 680.406 102.359 680.875 100.578C681.344 98.7969 681.953 97.1562 682.703 95.6562C683.453 94.0625 684.203 92.6562 684.953 91.4375C685.797 90.2188 686.594 89.1875 687.344 88.3438L694.375 80.0469C694.281 79.6719 693.953 79.25 693.391 78.7812C692.922 78.2188 692.453 77.7031 691.984 77.2344L690.156 75.9688ZM704.359 84.9688L703.797 85.8125C702.672 87.2188 701.406 88.6719 700 90.1719C698.688 91.6719 697.422 93.2188 696.203 94.8125C694.984 96.4062 693.953 98.1406 693.109 100.016C692.266 101.891 691.844 103.953 691.844 106.203C691.844 108.266 691.984 110.328 692.266 112.391C692.641 114.359 693.109 116.141 693.672 117.734C694.328 119.328 695.125 120.641 696.062 121.672C697 122.609 698.078 123.078 699.297 123.078C700.328 123.078 701.359 122.984 702.391 122.797C703.516 122.609 704.5 122.422 705.344 122.234L710.406 119.703C710.688 119.328 711.156 118.859 711.812 118.297C712.469 117.641 712.984 116.984 713.359 116.328C714.203 113.234 714.625 110.188 714.625 107.188C714.625 103.25 713.969 99.5 712.656 95.9375C711.344 92.2812 709.328 88.9531 706.609 85.9531L704.922 85.1094H704.781C704.594 85.1094 704.453 85.0625 704.359 84.9688ZM793.375 101.281C792.906 101.188 792.484 101.141 792.109 101.141C791.922 101.141 791.453 101.844 790.703 103.25C789.953 104.562 789.062 106.109 788.031 107.891C787.094 109.578 786.156 111.312 785.219 113.094C784.281 114.781 783.578 116 783.109 116.75C781.609 118.531 779.922 119.422 778.047 119.422C776.641 119.422 775.422 118.953 774.391 118.016C773.359 116.984 772.844 115.531 772.844 113.656C772.844 112.906 772.891 112.297 772.984 111.828C776.078 106.391 779.031 101.047 781.844 95.7969C784.656 90.5469 787.562 85.3438 790.562 80.1875C793.656 75.0312 796.891 70.0156 800.266 65.1406C803.641 60.1719 807.438 55.3438 811.656 50.6562C812.312 49.9062 813.016 49.4375 813.766 49.25C814.516 48.9688 815.219 48.7812 815.875 48.6875C817.281 48.6875 818.453 49.2031 819.391 50.2344C820.422 51.2656 821.031 52.5313 821.219 54.0312C820.938 55.0625 820.609 55.7656 820.234 56.1406L821.359 55.5781C822.578 55.5781 823.844 55.9063 825.156 56.5625C826.562 57.2188 827.547 58.4844 828.109 60.3594C828.859 65.6094 829.75 70.7188 830.781 75.6875C831.812 80.5625 832.797 85.4844 833.734 90.4531C834.766 95.3281 835.656 100.25 836.406 105.219C837.25 110.188 837.766 115.344 837.953 120.688C837.953 122.562 837.391 124.016 836.266 125.047C835.141 125.984 833.922 126.453 832.609 126.453C831.203 126.453 829.844 126.031 828.531 125.188C827.312 124.344 826.609 122.891 826.422 120.828C826.234 114.266 825.672 108.078 824.734 102.266C824.547 102.453 824.031 102.594 823.188 102.688C818.125 102.688 813.062 102.453 808 101.984C803.031 101.516 798.156 101.281 793.375 101.281ZM798.297 90.0312C801.672 90.2188 805.609 90.4531 810.109 90.7344C814.609 91.0156 818.734 91.1562 822.484 91.1562H822.625L822.484 90.4531C822.203 89.5156 821.875 88.1562 821.5 86.375C821.125 84.5938 820.703 82.6719 820.234 80.6094C819.859 78.5469 819.438 76.4375 818.969 74.2812C818.594 72.0312 818.219 70.0156 817.844 68.2344C817.469 66.4531 817.141 65 816.859 63.875C816.672 62.75 816.578 62.1875 816.578 62.1875C815.734 62.9375 814.562 64.2969 813.062 66.2656C811.75 67.9531 810.062 70.4375 808 73.7188C805.938 76.9062 803.359 81.2656 800.266 86.7969L798.297 90.0312ZM854.688 123.922C854.688 121.391 854.734 118.766 854.828 116.047C855.016 113.328 855.344 110.75 855.812 108.312L856.797 97.9062L858.062 90.3125C858.344 89.0938 858.484 87.9688 858.484 86.9375C858.484 85.8125 858.25 84.6406 857.781 83.4219C857.406 82.2031 856.328 81.5938 854.547 81.5938C853.797 81.5938 853.047 81.4062 852.297 81.0312C851.641 80.5625 851.031 80.0469 850.469 79.4844C849.906 78.8281 849.438 78.1719 849.062 77.5156C848.781 76.8594 848.641 76.25 848.641 75.6875C848.641 74.5625 849.203 73.3438 850.328 72.0312C851.453 70.7188 853 70.0625 854.969 70.0625C859.844 70.5312 863.406 71.8906 865.656 74.1406C867.906 76.3906 869.031 79.1562 869.031 82.4375C871.844 80.4688 875.125 79.0156 878.875 78.0781C882.625 77.0469 887.078 76.3438 892.234 75.9688C894.297 75.9688 895.891 76.5312 897.016 77.6562C898.141 78.6875 898.703 80 898.703 81.5938C898.703 83 898.234 84.2656 897.297 85.3906C896.359 86.4219 895.094 87.0781 893.5 87.3594C889.188 87.6406 885.531 88.1094 882.531 88.7656C879.531 89.4219 877 90.5 874.938 92C872.875 93.4062 871.281 95.3281 870.156 97.7656C869.031 100.203 868.188 103.344 867.625 107.188L867.203 109.297V115.062C867.109 116.469 867.016 117.922 866.922 119.422C866.922 120.828 866.828 122.281 866.641 123.781L866.219 126.312L865.375 128.562C863.875 130.344 862.141 131.234 860.172 131.234C856.797 131.234 854.969 129.266 854.688 125.328V123.922ZM919.375 90.875C919.188 90.9688 919.094 91.0625 919.094 91.1562H919.375C920.031 91.1562 920.688 91.3438 921.344 91.7188C922 92 922.562 92.375 923.031 92.8438C923.5 93.2188 923.875 93.5938 924.156 93.9688C924.531 94.25 924.766 94.3906 924.859 94.3906C926.266 95.0469 927.812 95.375 929.5 95.375C932.219 95.375 934.516 95 936.391 94.25C938.266 93.4062 939.203 91.4375 939.203 88.3438C938.641 86.4688 937.984 84.9219 937.234 83.7031C936.578 82.4844 935.453 81.3125 933.859 80.1875L930.906 78.9219H928.938C928.188 78.9219 927.203 79.1094 925.984 79.4844C924.766 79.8594 923.547 80.375 922.328 81.0312C921.953 81.5938 921.578 82.4375 921.203 83.5625C920.828 84.5938 920.5 85.625 920.219 86.6562C919.938 87.6875 919.703 88.625 919.516 89.4688C919.422 90.3125 919.375 90.7812 919.375 90.875ZM920.5 104.516L920.078 102.969C921.203 107.938 923.922 112.016 928.234 115.203C929.172 115.953 930.344 116.609 931.75 117.172C933.25 117.734 934.703 118.25 936.109 118.719C937.609 119.188 938.922 119.562 940.047 119.844C941.172 120.031 941.875 120.125 942.156 120.125C943.094 119.281 944.266 118.859 945.672 118.859C947.359 119.047 948.672 119.75 949.609 120.969C950.547 122.094 951.016 123.312 951.016 124.625C951.016 126.688 950.031 128.328 948.062 129.547C946.188 130.859 944.172 131.516 942.016 131.516C937.422 131.516 933.062 130.578 928.938 128.703C924.812 126.922 921.203 124.484 918.109 121.391C915.016 118.297 912.484 114.734 910.516 110.703C908.641 106.672 907.609 102.406 907.422 97.9062C907.422 94.8125 907.656 91.4844 908.125 87.9219C908.594 84.3594 909.578 81.0781 911.078 78.0781C912.578 74.9844 914.734 72.4062 917.547 70.3438C920.453 68.2812 924.297 67.25 929.078 67.25C932.078 67.25 934.891 67.9062 937.516 69.2188C940.141 70.4375 942.391 72.125 944.266 74.2812C946.234 76.4375 947.781 78.9219 948.906 81.7344C950.031 84.4531 950.594 87.3125 950.594 90.3125C950.594 93.0312 950.078 95.4219 949.047 97.4844C948.109 99.5469 946.797 101.281 945.109 102.688C943.422 104 941.406 105.031 939.062 105.781C936.812 106.438 934.422 106.766 931.891 106.766C930.859 106.766 929.688 106.672 928.375 106.484C927.156 106.297 925.984 106.109 924.859 105.922C923.734 105.641 922.75 105.406 921.906 105.219C921.156 104.938 920.688 104.703 920.5 104.516ZM1023.72 93.2656C1023.91 92.4219 1024.09 91.8125 1024.28 91.4375L1011.34 71.0469C1009.19 67.5781 1007.17 63.9688 1005.3 60.2188C1003.52 56.4688 1002.06 52.5313 1000.94 48.4062V47.4219C1000.94 45.8281 1001.41 44.4219 1002.34 43.2031C1003.38 41.8906 1004.83 41.2344 1006.7 41.2344C1008.48 41.2344 1010.12 42.2656 1011.62 44.3281C1013.78 51.1719 1016.59 57.5938 1020.06 63.5938C1023.53 69.5 1027 74.9844 1030.47 80.0469C1031.97 78.2656 1033.7 76.25 1035.67 74C1037.64 71.75 1039.66 69.2656 1041.72 66.5469C1043.78 63.8281 1045.8 60.9219 1047.77 57.8281C1049.83 54.6406 1051.61 51.2188 1053.11 47.5625C1054.14 46.3438 1055.17 45.5 1056.2 45.0312C1057.23 44.4688 1058.27 44.1875 1059.3 44.1875C1060.98 44.1875 1062.25 44.7969 1063.09 46.0156C1063.94 47.2344 1064.36 48.7812 1064.36 50.6562C1061.92 57.4062 1058.64 63.5 1054.52 68.9375C1050.48 74.2812 1046.22 79.4844 1041.72 84.5469C1040.97 85.2969 1039.94 86.4688 1038.62 88.0625C1037.41 89.5625 1036.19 90.9219 1034.97 92.1406L1035.11 92.9844C1035.11 95.7031 1035.2 98.1406 1035.39 100.297C1035.58 102.453 1035.72 104.469 1035.81 106.344C1036 108.125 1036.14 109.906 1036.23 111.688C1036.42 113.375 1036.52 115.109 1036.52 116.891C1036.52 118.109 1036.52 119.609 1036.52 121.391C1036.52 123.172 1036.38 124.578 1036.09 125.609L1035.81 127.156C1035.34 128.656 1034.59 129.781 1033.56 130.531C1032.53 131.281 1031.5 131.656 1030.47 131.656C1029.16 131.656 1027.98 131.234 1026.95 130.391C1026.02 129.547 1025.31 128.516 1024.84 127.297L1024.7 126.031C1024.7 124.156 1024.75 122.516 1024.84 121.109C1024.94 119.703 1024.98 118.25 1024.98 116.75C1024.98 114.875 1024.89 113.094 1024.7 111.406C1024.61 109.625 1024.47 107.844 1024.28 106.062C1024.19 104.281 1024.05 102.359 1023.86 100.297C1023.77 98.2344 1023.72 95.8906 1023.72 93.2656ZM1084.19 75.9688C1082.88 74.4688 1082.22 73.0156 1082.22 71.6094C1082.22 70.0156 1082.69 68.6562 1083.62 67.5312C1084.66 66.4062 1085.97 65.8438 1087.56 65.8438C1088.78 65.8438 1090 66.2188 1091.22 66.9688C1092.44 67.625 1093.56 68.4688 1094.59 69.5C1095.62 70.4375 1096.52 71.375 1097.27 72.3125C1098.02 73.25 1098.48 73.9062 1098.67 74.2812C1098.86 74.1875 1099.28 74.1406 1099.94 74.1406C1101.72 74.1406 1103.41 74.6094 1105 75.5469C1106.69 76.3906 1108.19 77.5156 1109.5 78.9219C1110.91 80.3281 1112.12 81.8281 1113.16 83.4219C1114.19 85.0156 1115.08 86.5156 1115.83 87.9219C1116.58 89.3281 1117.23 90.875 1117.8 92.5625C1118.45 94.1562 1118.97 95.7969 1119.34 97.4844C1119.72 99.1719 1120 100.812 1120.19 102.406C1120.38 104 1120.47 105.453 1120.47 106.766C1120.47 110.609 1119.95 114.219 1118.92 117.594C1117.98 120.875 1116.39 123.781 1114.14 126.312C1111.98 128.844 1109.12 130.812 1105.56 132.219C1102 133.719 1097.64 134.469 1092.48 134.469C1088.73 134.469 1085.64 133.344 1083.2 131.094C1080.86 128.844 1079.03 126.219 1077.72 123.219C1076.41 120.125 1075.47 116.984 1074.91 113.797C1074.44 110.609 1074.2 108.031 1074.2 106.062C1074.2 104.188 1074.44 102.359 1074.91 100.578C1075.38 98.7969 1075.98 97.1562 1076.73 95.6562C1077.48 94.0625 1078.23 92.6562 1078.98 91.4375C1079.83 90.2188 1080.62 89.1875 1081.38 88.3438L1088.41 80.0469C1088.31 79.6719 1087.98 79.25 1087.42 78.7812C1086.95 78.2188 1086.48 77.7031 1086.02 77.2344L1084.19 75.9688ZM1098.39 84.9688L1097.83 85.8125C1096.7 87.2188 1095.44 88.6719 1094.03 90.1719C1092.72 91.6719 1091.45 93.2188 1090.23 94.8125C1089.02 96.4062 1087.98 98.1406 1087.14 100.016C1086.3 101.891 1085.88 103.953 1085.88 106.203C1085.88 108.266 1086.02 110.328 1086.3 112.391C1086.67 114.359 1087.14 116.141 1087.7 117.734C1088.36 119.328 1089.16 120.641 1090.09 121.672C1091.03 122.609 1092.11 123.078 1093.33 123.078C1094.36 123.078 1095.39 122.984 1096.42 122.797C1097.55 122.609 1098.53 122.422 1099.38 122.234L1104.44 119.703C1104.72 119.328 1105.19 118.859 1105.84 118.297C1106.5 117.641 1107.02 116.984 1107.39 116.328C1108.23 113.234 1108.66 110.188 1108.66 107.188C1108.66 103.25 1108 99.5 1106.69 95.9375C1105.38 92.2812 1103.36 88.9531 1100.64 85.9531L1098.95 85.1094H1098.81C1098.62 85.1094 1098.48 85.0625 1098.39 84.9688ZM1184.88 128.562C1184.5 128.562 1184.17 128.609 1183.89 128.703C1181.45 128.703 1179.2 128.047 1177.14 126.734C1175.17 125.422 1173.72 123.828 1172.78 121.953V121.812C1172.69 121.812 1172.5 122.047 1172.22 122.516C1170.06 125.141 1167.91 127.016 1165.75 128.141C1163.59 129.266 1161.11 129.828 1158.3 129.828C1154.64 129.828 1151.12 129.312 1147.75 128.281C1144.38 127.25 1141.42 125.656 1138.89 123.5C1136.36 121.344 1134.3 118.672 1132.7 115.484C1131.2 112.203 1130.45 108.359 1130.45 103.953C1130.45 99.6406 1130.83 95.1406 1131.58 90.4531C1132.42 85.7656 1133.03 81.4531 1133.41 77.5156C1133.88 75.7344 1134.67 74.4219 1135.8 73.5781C1137.02 72.7344 1138.19 72.3125 1139.31 72.3125C1140.91 72.3125 1142.22 72.875 1143.25 74C1144.38 75.0312 1144.94 76.625 1144.94 78.7812C1144.75 80.0938 1144.47 81.6406 1144.09 83.4219C1143.81 85.1094 1143.53 86.9844 1143.25 89.0469C1142.97 91.0156 1142.69 93.0781 1142.41 95.2344C1142.22 97.3906 1142.12 99.5 1142.12 101.562C1142.12 103.625 1142.45 105.688 1143.11 107.75C1143.77 109.812 1144.66 111.688 1145.78 113.375C1147 114.969 1148.36 116.281 1149.86 117.312C1151.36 118.344 1152.95 118.859 1154.64 118.859C1155.77 118.859 1156.94 118.766 1158.16 118.578C1159.38 118.391 1160.55 117.781 1161.67 116.75C1162.89 115.625 1164.02 113.984 1165.05 111.828C1166.08 109.672 1166.88 106.625 1167.44 102.688C1167.34 101.188 1167.25 99.8281 1167.16 98.6094C1167.16 97.3906 1167.16 96.2656 1167.16 95.2344L1167.02 75.6875C1167.39 74.0938 1168.05 72.875 1168.98 72.0312C1170.02 71.1875 1171.23 70.6719 1172.64 70.4844C1175.45 70.4844 1177.42 72.1719 1178.55 75.5469C1178.55 76.5781 1178.5 77.6562 1178.41 78.7812C1178.41 79.8125 1178.41 80.8438 1178.41 81.875C1178.41 84.6875 1178.5 87.4531 1178.69 90.1719C1178.88 92.7969 1178.97 95.4688 1178.97 98.1875C1178.97 99.125 1178.97 100.062 1178.97 101C1178.97 101.844 1178.92 102.688 1178.83 103.531C1179.2 105.781 1179.72 107.938 1180.38 110C1181.12 112.062 1182.02 113.844 1183.05 115.344C1183.33 115.25 1183.8 115.203 1184.45 115.203C1185.95 115.203 1187.22 115.766 1188.25 116.891C1189.38 118.016 1189.94 119.609 1189.94 121.672C1189.66 123.078 1189.33 124.156 1188.95 124.906C1188.67 125.562 1188.06 126.406 1187.12 127.438L1184.88 128.562ZM1216.8 58.1094C1217.08 58.6719 1217.27 59.2344 1217.36 59.7969C1217.45 60.2656 1217.5 60.7344 1217.5 61.2031C1217.5 63.0781 1216.84 64.5312 1215.53 65.5625C1214.22 66.5 1212.86 66.9688 1211.45 66.9688C1209.95 66.9688 1208.69 66.5938 1207.66 65.8438C1206.62 65 1205.78 64.0156 1205.12 62.8906C1204.47 61.7656 1204 60.5938 1203.72 59.375C1203.44 58.0625 1203.3 56.9375 1203.3 56C1203.3 53.75 1203.95 51.6406 1205.27 49.6719C1206.58 47.6094 1208.27 45.8281 1210.33 44.3281C1212.48 42.8281 1214.92 41.6562 1217.64 40.8125C1220.45 39.9688 1223.36 39.5469 1226.36 39.5469C1228.89 39.5469 1231.47 39.9688 1234.09 40.8125C1236.72 41.5625 1239.11 42.7344 1241.27 44.3281C1243.42 45.9219 1245.16 47.9375 1246.47 50.375C1247.88 52.8125 1248.58 55.6719 1248.58 58.9531C1248.58 61.6719 1248.02 64.2031 1246.89 66.5469C1245.86 68.7969 1244.5 70.9531 1242.81 73.0156C1241.12 75.0781 1239.25 77.0469 1237.19 78.9219C1235.22 80.7969 1233.25 82.7188 1231.28 84.6875C1230.25 85.7188 1229.22 86.5625 1228.19 87.2188L1227.91 87.5C1227.91 87.9688 1227.86 88.5781 1227.77 89.3281C1227.77 89.9844 1227.77 90.6875 1227.77 91.4375C1228.05 93.6875 1228.23 96.0312 1228.33 98.4688C1228.52 100.812 1228.66 103.25 1228.75 105.781C1228.38 108.125 1227.53 109.812 1226.22 110.844C1225 111.781 1223.59 112.25 1222 112.25C1220.69 112.25 1219.42 111.734 1218.2 110.703C1216.98 109.578 1216.38 108.078 1216.38 106.203C1216.38 104.047 1216.14 101.562 1215.67 98.75C1215.2 95.9375 1214.97 93.0312 1214.97 90.0312C1214.97 87.6875 1215.3 85.625 1215.95 83.8438C1216.61 82.0625 1217.55 80.4688 1218.77 79.0625C1219.98 77.5625 1221.39 76.2031 1222.98 74.9844C1224.58 73.6719 1226.31 72.3125 1228.19 70.9062C1230.53 69.125 1232.41 67.3438 1233.81 65.5625C1235.31 63.6875 1236.06 61.5312 1236.06 59.0938C1236.06 56.5625 1235.17 54.7344 1233.39 53.6094C1231.7 52.3906 1229.69 51.7812 1227.34 51.7812C1225.09 51.7812 1222.84 52.25 1220.59 53.1875C1218.44 54.0312 1216.84 54.9687 1215.81 56C1215.81 56.2812 1216.14 56.9844 1216.8 58.1094ZM1222.7 119.984H1223.41C1224.53 119.984 1225.52 120.266 1226.36 120.828L1226.92 121.391C1228.52 122.328 1229.83 123.828 1230.86 125.891C1231.98 127.953 1232.55 130.062 1232.55 132.219C1232.55 134.75 1231.7 137.047 1230.02 139.109C1228.33 141.266 1225.47 142.344 1221.44 142.344C1218.16 142.344 1215.72 141.453 1214.12 139.672C1212.62 137.984 1211.88 135.688 1211.88 132.781C1211.88 131.375 1212.11 129.969 1212.58 128.562C1213.05 127.156 1213.7 125.891 1214.55 124.766C1215.48 123.547 1216.61 122.516 1217.92 121.672C1219.33 120.828 1220.92 120.266 1222.7 119.984Z" fill="#222222"/>
<path d="M796.15 189.3V187.825H800.925V197H799.725L799.35 194.825C798.317 196.508 796.742 197.35 794.625 197.35C792.475 197.35 790.867 196.8 789.8 195.7C788.867 194.75 788.267 193.217 788 191.1C787.9 190.183 787.85 189.025 787.85 187.625C787.85 186.208 787.95 184.95 788.15 183.85C788.367 182.75 788.733 181.775 789.25 180.925C790.25 179.242 792.125 178.4 794.875 178.4C796.692 178.4 798.042 178.817 798.925 179.65C799.808 180.467 800.35 181.642 800.55 183.175L798.775 183.5C798.425 181.3 797.125 180.2 794.875 180.2C793.325 180.2 792.167 180.633 791.4 181.5C790.717 182.283 790.3 183.517 790.15 185.2C790.083 185.933 790.05 186.833 790.05 187.9C790.05 188.95 790.083 189.85 790.15 190.6C790.217 191.35 790.35 192.058 790.55 192.725C790.75 193.375 791.017 193.9 791.35 194.3C792.1 195.133 793.167 195.55 794.55 195.55C795.95 195.55 797.008 195.217 797.725 194.55C798.458 193.867 798.875 192.95 798.975 191.8V189.3H796.15ZM810.759 197.35C808.576 197.35 807.017 196.733 806.084 195.5C805.151 194.25 804.684 192.367 804.684 189.85C804.684 184.85 806.676 182.35 810.659 182.35C814.592 182.35 816.559 184.75 816.559 189.55V190.075H806.809C806.826 192.042 807.126 193.458 807.709 194.325C808.292 195.175 809.309 195.6 810.759 195.6C813.126 195.6 814.392 194.642 814.559 192.725L816.334 192.825C816.017 195.842 814.159 197.35 810.759 197.35ZM814.409 188.475C814.326 187.075 814.009 186 813.459 185.25C812.909 184.483 811.984 184.1 810.684 184.1C809.384 184.1 808.451 184.492 807.884 185.275C807.317 186.042 806.976 187.108 806.859 188.475H814.409ZM818.312 184.175V182.7H820.762V180.1L822.912 179.25V182.7H825.937V184.175H822.912V193.65C822.912 194.4 823.012 194.933 823.212 195.25C823.429 195.55 823.737 195.7 824.137 195.7C824.537 195.7 825.029 195.633 825.612 195.5L825.862 196.95C824.962 197.217 824.195 197.35 823.562 197.35C822.945 197.35 822.437 197.25 822.037 197.05C821.637 196.85 821.354 196.55 821.187 196.15C820.904 195.55 820.762 194.742 820.762 193.725V184.175H818.312ZM848.431 194.575C847.915 195.475 847.173 196.167 846.206 196.65C845.24 197.117 844.048 197.35 842.631 197.35C841.231 197.35 840.048 197.117 839.081 196.65C838.131 196.183 837.398 195.5 836.881 194.6C836.381 193.683 836.023 192.692 835.806 191.625C835.606 190.558 835.506 189.392 835.506 188.125C835.506 186.842 835.565 185.758 835.681 184.875C835.798 183.975 836.015 183.108 836.331 182.275C836.665 181.442 837.09 180.75 837.606 180.2C838.756 179 840.44 178.4 842.656 178.4C845.456 178.4 847.381 179.333 848.431 181.2C848.948 182.1 849.306 183.083 849.506 184.15C849.723 185.217 849.831 186.467 849.831 187.9C849.831 189.317 849.723 190.558 849.506 191.625C849.306 192.692 848.948 193.675 848.431 194.575ZM842.806 195.55C843.673 195.55 844.44 195.358 845.106 194.975C845.79 194.575 846.306 194.017 846.656 193.3C847.006 192.567 847.256 191.767 847.406 190.9C847.556 190.017 847.631 189.008 847.631 187.875C847.631 186.742 847.556 185.742 847.406 184.875C847.256 183.992 847.006 183.183 846.656 182.45C845.923 180.95 844.59 180.2 842.656 180.2C841.106 180.2 839.94 180.692 839.156 181.675C838.19 182.892 837.706 184.958 837.706 187.875C837.706 190.792 838.19 192.858 839.156 194.075C839.94 195.058 841.156 195.55 842.806 195.55ZM858.299 197.35C856.815 197.35 855.74 196.983 855.074 196.25C854.407 195.5 854.074 194.383 854.074 192.9V182.7H856.224V192.75C856.224 193.733 856.432 194.458 856.849 194.925C857.282 195.375 857.949 195.6 858.849 195.6C860.465 195.6 861.974 194.775 863.374 193.125V182.7H865.524V197H864.099L863.424 194.875C861.874 196.525 860.165 197.35 858.299 197.35ZM868.703 184.175V182.7H871.153V180.1L873.303 179.25V182.7H876.328V184.175H873.303V193.65C873.303 194.4 873.403 194.933 873.603 195.25C873.819 195.55 874.128 195.7 874.528 195.7C874.928 195.7 875.419 195.633 876.003 195.5L876.253 196.95C875.353 197.217 874.586 197.35 873.953 197.35C873.336 197.35 872.828 197.25 872.428 197.05C872.028 196.85 871.744 196.55 871.578 196.15C871.294 195.55 871.153 194.742 871.153 193.725V184.175H868.703ZM898.822 194.575C898.305 195.475 897.564 196.167 896.597 196.65C895.63 197.117 894.439 197.35 893.022 197.35C891.622 197.35 890.439 197.117 889.472 196.65C888.522 196.183 887.789 195.5 887.272 194.6C886.772 193.683 886.414 192.692 886.197 191.625C885.997 190.558 885.897 189.392 885.897 188.125C885.897 186.842 885.955 185.758 886.072 184.875C886.189 183.975 886.405 183.108 886.722 182.275C887.055 181.442 887.48 180.75 887.997 180.2C889.147 179 890.83 178.4 893.047 178.4C895.847 178.4 897.772 179.333 898.822 181.2C899.339 182.1 899.697 183.083 899.897 184.15C900.114 185.217 900.222 186.467 900.222 187.9C900.222 189.317 900.114 190.558 899.897 191.625C899.697 192.692 899.339 193.675 898.822 194.575ZM893.197 195.55C894.064 195.55 894.83 195.358 895.497 194.975C896.18 194.575 896.697 194.017 897.047 193.3C897.397 192.567 897.647 191.767 897.797 190.9C897.947 190.017 898.022 189.008 898.022 187.875C898.022 186.742 897.947 185.742 897.797 184.875C897.647 183.992 897.397 183.183 897.047 182.45C896.314 180.95 894.98 180.2 893.047 180.2C891.497 180.2 890.33 180.692 889.547 181.675C888.58 182.892 888.097 184.958 888.097 187.875C888.097 190.792 888.58 192.858 889.547 194.075C890.33 195.058 891.547 195.55 893.197 195.55ZM909.214 179.325C907.914 179.325 907.264 180.083 907.264 181.6V182.7H910.564V184.175H907.264V197H905.114V184.175H903.464V182.7H905.114V181.6C905.114 178.95 906.431 177.625 909.064 177.625C910.048 177.625 910.931 177.767 911.714 178.05L911.164 179.675C910.598 179.442 909.948 179.325 909.214 179.325ZM931.063 178.75H933.263V197H931.063V188.75H922.613V197H920.413V178.75H922.613V187H931.063V178.75ZM943.327 197.35C941.144 197.35 939.586 196.733 938.652 195.5C937.719 194.25 937.252 192.367 937.252 189.85C937.252 184.85 939.244 182.35 943.227 182.35C947.161 182.35 949.127 184.75 949.127 189.55V190.075H939.377C939.394 192.042 939.694 193.458 940.277 194.325C940.861 195.175 941.877 195.6 943.327 195.6C945.694 195.6 946.961 194.642 947.127 192.725L948.902 192.825C948.586 195.842 946.727 197.35 943.327 197.35ZM946.977 188.475C946.894 187.075 946.577 186 946.027 185.25C945.477 184.483 944.552 184.1 943.252 184.1C941.952 184.1 941.019 184.492 940.452 185.275C939.886 186.042 939.544 187.108 939.427 188.475H946.977ZM955.155 197H953.005V182.7H954.28L955.055 185.25C956.222 183.4 957.93 182.433 960.18 182.35V184.325C957.93 184.408 956.255 185.358 955.155 187.175V197ZM967.815 197.35C965.631 197.35 964.073 196.733 963.14 195.5C962.206 194.25 961.74 192.367 961.74 189.85C961.74 184.85 963.731 182.35 967.715 182.35C971.648 182.35 973.615 184.75 973.615 189.55V190.075H963.865C963.881 192.042 964.181 193.458 964.765 194.325C965.348 195.175 966.365 195.6 967.815 195.6C970.181 195.6 971.448 194.642 971.615 192.725L973.39 192.825C973.073 195.842 971.215 197.35 967.815 197.35ZM971.465 188.475C971.381 187.075 971.065 186 970.515 185.25C969.965 184.483 969.04 184.1 967.74 184.1C966.44 184.1 965.506 184.492 964.94 185.275C964.373 186.042 964.031 187.108 963.915 188.475H971.465ZM980.018 196.425C979.984 196.608 979.859 196.783 979.643 196.95C979.426 197.117 979.118 197.2 978.718 197.2C978.334 197.2 978.034 197.117 977.818 196.95C977.618 196.783 977.493 196.608 977.443 196.425C977.409 196.225 977.393 196 977.393 195.75C977.393 195.483 977.401 195.275 977.418 195.125C977.451 194.975 977.509 194.817 977.593 194.65C977.726 194.3 978.093 194.125 978.693 194.125C979.293 194.125 979.676 194.267 979.843 194.55C980.009 194.817 980.093 195.15 980.093 195.55C980.093 195.933 980.068 196.225 980.018 196.425ZM977.518 178.75H979.918V182.85L979.368 192.225H978.068L977.518 182.85V178.75Z" fill="#222222"/>
<defs>
<linearGradient id="paint0_linear_202_12" x1="566" y1="608" x2="566" y2="879" gradientUnits="userSpaceOnUse">
<stop stop-color="#5500AA"/>
<stop offset="1" stop-color="#7E2CD1"/>
</linearGradient>
<linearGradient id="paint1_linear_202_12" x1="565.495" y1="660.582" x2="565.495" y2="827.429" gradientUnits="userSpaceOnUse">
<stop stop-color="#5500AA"/>
<stop offset="1" stop-color="#7E2CD1"/>
</linearGradient>
<linearGradient id="paint2_linear_202_12" x1="566" y1="709.119" x2="566" y2="779.903" gradientUnits="userSpaceOnUse">
<stop stop-color="#5500AA"/>
<stop offset="1" stop-color="#7E2CD1"/>
</linearGradient>
<linearGradient id="paint3_linear_202_12" x1="1236" y1="607" x2="1236" y2="880" gradientUnits="userSpaceOnUse">
<stop stop-color="#5500AA"/>
<stop offset="1" stop-color="#7E2CD1"/>
</linearGradient>
<linearGradient id="paint4_linear_202_12" x1="1235.49" y1="659.97" x2="1235.49" y2="828.049" gradientUnits="userSpaceOnUse">
<stop stop-color="#5500AA"/>
<stop offset="1" stop-color="#7E2CD1"/>
</linearGradient>
<linearGradient id="paint5_linear_202_12" x1="1236" y1="708.865" x2="1236" y2="780.171" gradientUnits="userSpaceOnUse">
<stop stop-color="#5500AA"/>
<stop offset="1" stop-color="#7E2CD1"/>
</linearGradient>
</defs>
</svg>
