<svg width="1768" height="1019" viewBox="0 0 1768 1019" fill="none" xmlns="http://www.w3.org/2000/svg">
<mask id="mask0_202_12" style="mask-type:alpha" maskUnits="userSpaceOnUse" x="0" y="0" width="1768" height="1019">
<rect width="1768" height="1018.91" fill="#C4C4C4"/>
</mask>
<g mask="url(#mask0_202_12)">
<path d="M504.366 3781C418.987 3729.76 205.537 2450.15 120.158 1838.11C34.778 1226.06 98.8128 386.27 269.572 66.0118C293.679 20.7989 611.091 258.167 717.815 407.62H1102.02C1102.02 407.62 1251.44 172.764 1507.58 66.0118C1742.37 493.022 1699.68 1411.1 1678.34 1838.11L1229.37 2734.83H867.229V3994.51H354.952C333.607 3994.51 333.607 3951.81 354.952 3887.76C372.028 3836.52 461.676 3795.24 504.366 3781Z" fill="#3F3F3F"/>
<path d="M1488.23 118.872C1516.03 130.653 1538.47 254.065 1553.98 374.653C1554.64 379.809 1549.6 383.813 1544.68 382.126C1507.38 369.324 1518.63 377.651 1560.75 459.264C1562.8 463.226 1560.63 468.059 1556.34 469.266C1521.36 479.101 1518.18 488.621 1578.08 613.496C1636.2 734.69 1223.93 496.115 1143.3 448.633C1136.2 444.451 1134.64 435.13 1140.12 428.975C1193.6 368.91 1438.7 97.8891 1488.23 118.872Z" fill="#222222"/>
<path d="M280.7 101.321C252.897 113.102 230.452 236.513 214.949 357.102C214.286 362.258 219.327 366.262 224.243 364.574C261.547 351.773 250.293 360.1 208.172 441.712C206.127 445.675 208.292 450.507 212.585 451.714C247.567 461.55 250.741 471.07 190.849 595.945C132.723 717.139 544.995 478.564 625.62 431.082C632.722 426.899 634.289 417.579 628.808 411.424C575.321 351.359 330.221 80.3379 280.7 101.321Z" fill="#222222"/>
<path d="M1733.52 1046.27C1704.27 977.4 1793.9 1001.93 1749.62 928.341C1676.91 832.111 1869.37 945.323 1668.74 761.412C1625.98 671.101 1563.29 589.042 1484.27 519.921C1405.25 450.8 1311.44 395.97 1208.19 358.562C1104.95 321.153 994.291 301.9 882.539 301.9C770.786 301.9 660.128 321.153 556.883 358.562C453.637 395.97 359.826 450.8 280.805 519.921C201.784 589.042 139.101 671.101 96.3357 761.413C76.3747 803.566 -34.4823 925.511 50.145 891.547C-62.7852 1034.01 71.183 945.323 31.5588 1046.27L1733.52 1046.27Z" fill="#3F3F3F"/>
<path d="M1378.79 755.693C1378.79 837.497 1312.47 903.812 1230.67 903.812C1148.86 903.812 1082.55 837.497 1082.55 755.693C1082.55 673.888 1148.86 607.573 1230.67 607.573C1312.47 607.573 1378.79 673.888 1378.79 755.693Z" fill="white"/>
<path d="M1369.35 742.484C1369.35 816.994 1309.37 877.396 1235.38 877.396C1161.4 877.396 1101.42 816.994 1101.42 742.484C1101.42 667.975 1161.4 607.573 1235.38 607.573C1309.37 607.573 1369.35 667.975 1369.35 742.484Z" fill="#BB0000"/>
<path d="M1369.35 742.484C1369.35 816.994 1309.37 877.396 1235.38 877.396C1161.4 877.396 1101.42 816.994 1101.42 742.484C1101.42 667.975 1161.4 607.573 1235.38 607.573C1309.37 607.573 1369.35 667.975 1369.35 742.484Z" fill="#BB0000"/>
<path d="M1369.35 742.484C1369.35 816.994 1309.37 877.396 1235.38 877.396C1161.4 877.396 1101.42 816.994 1101.42 742.484C1101.42 667.975 1161.4 607.573 1235.38 607.573C1309.37 607.573 1369.35 667.975 1369.35 742.484Z" fill="#BB0000"/>
<path d="M1184.44 672.67C1184.44 688.823 1170.92 701.917 1154.25 701.917C1137.57 701.917 1124.06 688.823 1124.06 672.67C1124.06 656.518 1137.57 643.424 1154.25 643.424C1170.92 643.424 1184.44 656.518 1184.44 672.67Z" fill="#BB0000"/>
<path d="M1184.44 672.67C1184.44 688.823 1170.92 701.917 1154.25 701.917C1137.57 701.917 1124.06 688.823 1124.06 672.67C1124.06 656.518 1137.57 643.424 1154.25 643.424C1170.92 643.424 1184.44 656.518 1184.44 672.67Z" fill="#BB0000"/>
<path d="M1184.44 672.67C1184.44 688.823 1170.92 701.917 1154.25 701.917C1137.57 701.917 1124.06 688.823 1124.06 672.67C1124.06 656.518 1137.57 643.424 1154.25 643.424C1170.92 643.424 1184.44 656.518 1184.44 672.67Z" fill="#FEFEFE"/>
<path d="M708.946 755.693C708.946 837.497 642.631 903.812 560.827 903.812C479.022 903.812 412.707 837.497 412.707 755.693C412.707 673.888 479.022 607.573 560.827 607.573C642.631 607.573 708.946 673.888 708.946 755.693Z" fill="white"/>
<path d="M699.512 742.484C699.512 816.994 639.532 877.396 565.544 877.396C491.555 877.396 431.576 816.994 431.576 742.484C431.576 667.975 491.555 607.573 565.544 607.573C639.532 607.573 699.512 667.975 699.512 742.484Z" fill="#BB0000"/>
<path d="M699.512 742.484C699.512 816.994 639.532 877.396 565.544 877.396C491.555 877.396 431.576 816.994 431.576 742.484C431.576 667.975 491.555 607.573 565.544 607.573C639.532 607.573 699.512 667.975 699.512 742.484Z" fill="#BB0000"/>
<path d="M699.512 742.484C699.512 816.994 639.532 877.396 565.544 877.396C491.555 877.396 431.576 816.994 431.576 742.484C431.576 667.975 491.555 607.573 565.544 607.573C639.532 607.573 699.512 667.975 699.512 742.484Z" fill="#BB0000"/>
<path d="M514.598 672.67C514.598 688.823 501.082 701.917 484.408 701.917C467.735 701.917 454.218 688.823 454.218 672.67C454.218 656.518 467.735 643.424 484.408 643.424C501.082 643.424 514.598 656.518 514.598 672.67Z" fill="#BB0000"/>
<path d="M514.598 672.67C514.598 688.823 501.082 701.917 484.408 701.917C467.735 701.917 454.218 688.823 454.218 672.67C454.218 656.518 467.735 643.424 484.408 643.424C501.082 643.424 514.598 656.518 514.598 672.67Z" fill="#BB0000"/>
<path d="M514.598 672.67C514.598 688.823 501.082 701.917 484.408 701.917C467.735 701.917 454.218 688.823 454.218 672.67C454.218 656.518 467.735 643.424 484.408 643.424C501.082 643.424 514.598 656.518 514.598 672.67Z" fill="#FEFEFE"/>
<path d="M922.753 1118.82C907.947 1139.67 877.138 1140.06 861.798 1119.61L778.57 1008.64C760.046 983.94 777.401 948.661 808.272 948.262L971.832 946.148C1002.7 945.749 1020.96 980.568 1003.09 1005.74L922.753 1118.82Z" fill="#222222"/>
</g>
<circle cx="566" cy="743.5" r="132.5" fill="url(#paint0_linear_202_12)" stroke="black" stroke-width="6"/>
<circle cx="565.495" cy="744.006" r="80.4235" fill="url(#paint1_linear_202_12)" stroke="black" stroke-width="6"/>
<circle cx="566" cy="744.511" r="32.3918" fill="url(#paint2_linear_202_12)" stroke="black" stroke-width="6"/>
<circle cx="486" cy="666.784" r="25" fill="white"/>
<circle cx="1236" cy="743.5" r="133.5" fill="url(#paint3_linear_202_12)" stroke="black" stroke-width="6"/>
<circle cx="1235.49" cy="744.009" r="81.0392" fill="url(#paint4_linear_202_12)" stroke="black" stroke-width="6"/>
<circle cx="1236" cy="744.518" r="32.653" fill="url(#paint5_linear_202_12)" stroke="black" stroke-width="6"/>
<circle cx="1155.22" cy="666" r="25" fill="white"/>
<defs>
<linearGradient id="paint0_linear_202_12" x1="566" y1="608" x2="566" y2="879" gradientUnits="userSpaceOnUse">
<stop stop-color="#5500AA"/>
<stop offset="1" stop-color="#7E2CD1"/>
</linearGradient>
<linearGradient id="paint1_linear_202_12" x1="565.495" y1="660.582" x2="565.495" y2="827.429" gradientUnits="userSpaceOnUse">
<stop stop-color="#5500AA"/>
<stop offset="1" stop-color="#7E2CD1"/>
</linearGradient>
<linearGradient id="paint2_linear_202_12" x1="566" y1="709.119" x2="566" y2="779.903" gradientUnits="userSpaceOnUse">
<stop stop-color="#5500AA"/>
<stop offset="1" stop-color="#7E2CD1"/>
</linearGradient>
<linearGradient id="paint3_linear_202_12" x1="1236" y1="607" x2="1236" y2="880" gradientUnits="userSpaceOnUse">
<stop stop-color="#5500AA"/>
<stop offset="1" stop-color="#7E2CD1"/>
</linearGradient>
<linearGradient id="paint4_linear_202_12" x1="1235.49" y1="659.97" x2="1235.49" y2="828.049" gradientUnits="userSpaceOnUse">
<stop stop-color="#5500AA"/>
<stop offset="1" stop-color="#7E2CD1"/>
</linearGradient>
<linearGradient id="paint5_linear_202_12" x1="1236" y1="708.865" x2="1236" y2="780.171" gradientUnits="userSpaceOnUse">
<stop stop-color="#5500AA"/>
<stop offset="1" stop-color="#7E2CD1"/>
</linearGradient>
</defs>
</svg>
