<svg width="168" height="55" viewBox="0 0 168 55" fill="none" xmlns="http://www.w3.org/2000/svg">
<path d="M1.01613 25.1419C0.64679 19.4171 6.71021 16.6008 9.78809 15.9083C9.78809 12.6769 10.2497 10.5995 10.7114 8.52219L10.7115 8.52138C11.1732 6.44381 13.7125 2.9812 19.0218 1.36532C23.2693 0.0726071 27.8707 2.51952 29.6405 3.90456C30.4869 3.21204 32.5029 1.78083 33.7956 1.59616C35.4115 1.36531 38.6433 -0.250571 44.876 3.44288C51.1087 7.13633 49.262 14.5232 49.7236 15.6774C50.1853 16.8316 52.2629 16.37 53.4171 17.2933C54.5713 18.2167 57.1105 19.1401 58.7264 25.1419C60.3423 31.1438 54.3405 37.8382 52.7246 38.9924C51.1087 40.1466 50.8778 41.5316 50.1853 42.9167C49.4928 44.3017 46.0302 48.9185 44.6451 50.0727C43.2601 51.2269 39.7975 52.8428 35.4115 53.5353C31.0255 54.2279 20.8685 54.9204 15.0975 50.0727C9.3265 45.2251 10.4807 42.6858 7.24893 38.9924C4.01716 35.2989 1.47782 32.298 1.01613 25.1419Z" fill="white" stroke="white"/>
<path d="M24.1005 28.1428C25.5779 24.08 27.7939 22.2949 28.7173 21.9101C29.2548 21.7029 30.5648 21.6707 31.4875 21.9101C32.6048 22.2 33.5418 23.4796 34.7193 25.8345C35.6427 27.6812 35.4118 29.297 37.7202 31.1438C40.0286 32.9905 41.8754 35.9914 41.8754 37.6073C41.8754 39.2232 41.6445 40.1465 40.4903 41.5316C39.3361 42.9166 34.2576 42.455 32.6417 41.5316C31.0259 40.6082 28.7173 41.3008 27.7941 41.5316C26.8709 41.7624 23.1773 42.455 22.7156 42.455C22.2539 42.455 19.022 41.7624 18.3295 37.6073C17.6369 33.4522 22.2537 33.2213 24.1005 28.1428Z" fill="#E8B9C4" stroke="#E8B9C4"/>
<ellipse cx="21.8818" cy="13.3799" rx="5.77102" ry="6.69438" transform="rotate(-17.0167 21.8818 13.3799)" fill="#E8B9C4"/>
<ellipse cx="47.1388" cy="27.5163" rx="5.77102" ry="6.69438" transform="rotate(40.054 47.1388 27.5163)" fill="#E8B9C4"/>
<ellipse cx="12.6505" cy="27.2302" rx="5.77102" ry="6.69438" transform="rotate(-34.2084 12.6505 27.2302)" fill="#E8B9C4"/>
<ellipse cx="37.8362" cy="13.5697" rx="5.77102" ry="6.69438" transform="rotate(20.2929 37.8362 13.5697)" fill="#E8B9C4"/>
<path d="M94.2139 18.0185C94.5022 18.3948 94.6464 18.7855 94.6464 19.1907C94.6464 19.6828 94.459 20.0735 94.0841 20.3629C93.7093 20.6234 93.2624 20.7537 92.7433 20.7537C92.4838 20.7537 92.2099 20.6813 91.9216 20.5366C91.6621 20.3629 91.3881 20.1748 91.0998 19.9722C90.8403 19.7406 90.5664 19.5091 90.278 19.2775C90.0185 19.0171 89.7734 18.8144 89.5428 18.6697C89.1968 18.5829 88.9228 18.4961 88.721 18.4092C88.5192 18.2935 88.1876 18.2066 87.7262 18.1487C86.6305 18.2935 85.6358 18.7276 84.7419 19.4512C83.8481 20.1459 83.0696 21.0286 82.4064 22.0995C81.772 23.1415 81.2674 24.2993 80.8926 25.5728C80.5466 26.8463 80.3736 28.1053 80.3736 29.3499C80.3736 30.3629 80.5033 31.3181 80.7628 32.2153C81.0223 33.0836 81.426 33.8651 81.9739 34.5597C82.5217 35.2254 83.1849 35.7609 83.9634 36.1661C84.7708 36.5424 85.7223 36.7305 86.818 36.7305C88.029 36.7305 89.1824 36.4845 90.278 35.9925C91.3737 35.5004 92.1667 34.7913 92.6568 33.8651C93.1182 33.1994 93.6372 32.8665 94.2139 32.8665C94.6176 32.8665 95.0068 33.0113 95.3817 33.3007C95.7853 33.5612 95.9872 33.9519 95.9872 34.4729C95.9872 34.9071 95.8718 35.3267 95.6412 35.732C95.4105 36.1082 95.1221 36.47 94.7761 36.8173C94.4301 37.1357 94.0553 37.4396 93.6516 37.7291C93.2479 37.9896 92.8731 38.2211 92.5271 38.4237C91.6909 39.0026 90.7971 39.4223 89.8455 39.6828C88.894 39.9432 87.9569 40.0735 87.0342 40.0735C85.679 40.0735 84.3959 39.8564 83.1849 39.4223C81.9739 38.9592 80.907 38.3079 79.9843 37.4686C79.0905 36.6292 78.3696 35.5872 77.8218 34.3427C77.2739 33.0981 77 31.6654 77 30.0445C77 27.0055 77.5767 24.2848 78.73 21.8825C79.9122 19.4512 81.5558 17.4541 83.6606 15.8911C84.1797 15.4859 84.7708 15.1965 85.4339 15.0228C86.0971 14.8202 86.7891 14.7189 87.51 14.7189C88.3173 14.7189 89.0093 14.8058 89.586 14.9794C90.1627 15.1531 90.6961 15.3991 91.1863 15.7175C91.7053 16.0069 92.1955 16.3542 92.6568 16.7595C93.1182 17.1647 93.6372 17.5843 94.2139 18.0185Z" fill="white"/>
<path d="M111.038 33.6914L110.736 33.648C110.303 33.5612 109.9 33.4165 109.525 33.2139C109.179 33.0113 108.833 32.8087 108.487 32.6061C108.141 32.4034 107.809 32.2298 107.492 32.0851C107.175 31.9114 106.858 31.8246 106.54 31.8246C105.531 31.9404 104.652 32.2877 103.902 32.8665C103.181 33.4454 102.821 34.1401 102.821 34.9505C102.821 35.182 102.878 35.4281 102.994 35.6885C103.109 35.949 103.297 36.2819 103.556 36.6871C104.306 37.1502 105.128 37.3817 106.021 37.3817C107.059 37.3817 107.968 37.2804 108.746 37.0778L109.308 36.5134C109.597 36.1372 109.986 35.949 110.476 35.949H110.692C110.721 35.7175 110.75 35.4859 110.779 35.2544C110.808 35.0228 110.851 34.7913 110.909 34.5597L111.038 33.6914ZM111.687 38.9447L110.692 39.8998C110.318 40.2472 109.712 40.4932 108.876 40.6379C108.069 40.8116 107.218 40.8984 106.324 40.8984C105.113 40.8984 104.075 40.7681 103.21 40.5076C102.374 40.2472 101.639 39.7406 101.004 38.9881C99.9663 37.5988 99.4472 36.2964 99.4472 35.0807C99.4472 34.2703 99.6058 33.4744 99.923 32.6929C100.269 31.8825 100.745 31.1589 101.35 30.5221C101.956 29.8854 102.691 29.3644 103.556 28.9592C104.45 28.554 105.445 28.3514 106.54 28.3514C107.002 28.4092 107.449 28.5105 107.881 28.6553C108.314 28.8 108.717 28.9592 109.092 29.1328C109.467 29.3065 109.799 29.4802 110.087 29.6538C110.404 29.7985 110.649 29.9143 110.822 30.0011L110.563 28.8289C110.419 28.3658 110.246 27.9172 110.044 27.483C109.842 27.0199 109.597 26.5713 109.308 26.1372L108.443 25.3557C108.213 25.2978 107.997 25.2254 107.795 25.1386C107.593 25.0228 107.333 24.965 107.016 24.965C106.18 25.0228 105.358 25.1386 104.551 25.3123C103.744 25.457 102.936 25.6741 102.129 25.9635C102.042 25.9925 101.913 26.0069 101.74 26.0069C101.134 26.0069 100.658 25.8333 100.312 25.4859C99.9951 25.1386 99.8365 24.7623 99.8365 24.3571C99.8365 24.0098 99.923 23.7059 100.096 23.4454C100.269 23.156 100.601 22.8665 101.091 22.5771C101.84 22.3456 102.662 22.0995 103.556 21.8391C104.479 21.5496 105.401 21.4049 106.324 21.4049C107.91 21.4049 109.222 21.7233 110.26 22.36C111.327 22.9968 112.163 23.8362 112.769 24.8781C113.403 25.8911 113.835 27.0199 114.066 28.2645C114.326 29.5091 114.455 30.7392 114.455 31.9548C114.455 32.6784 114.426 33.4599 114.369 34.2993C114.34 35.1097 114.239 35.8767 114.066 36.6003C113.922 37.2949 113.706 37.8738 113.417 38.3369C113.129 38.8 112.74 39.0315 112.25 39.0315C112.134 39.0315 112.019 39.0315 111.904 39.0315C111.788 39.0026 111.716 38.9736 111.687 38.9447Z" fill="white"/>
<path d="M119.818 27.8304C119.184 27.7725 118.737 27.5699 118.478 27.2226C118.218 26.8463 118.088 26.4411 118.088 26.0069C118.088 25.6017 118.233 25.211 118.521 24.8347C118.838 24.4584 119.242 24.2703 119.732 24.2703C120.683 24.2703 121.678 24.2993 122.716 24.3571C123.754 24.3861 124.792 24.4295 125.83 24.4874C126.868 24.5163 127.892 24.5453 128.901 24.5742C129.91 24.6032 130.862 24.6176 131.756 24.6176C132.275 24.7913 132.65 25.0518 132.88 25.3991C133.14 25.7175 133.269 26.0648 133.269 26.4411C133.269 26.8463 133.125 27.2081 132.837 27.5265C132.549 27.8448 132.159 28.0619 131.669 28.1777H131.41C130.747 28.1198 130.285 27.9172 130.026 27.5699C129.766 27.1936 129.636 26.7884 129.636 26.3542C129.636 25.949 129.781 25.5583 130.069 25.182C130.386 24.8058 130.862 24.6176 131.496 24.6176H131.756C132.275 24.7913 132.65 25.0518 132.88 25.3991C133.14 25.7175 133.269 26.0648 133.269 26.4411C133.269 26.8463 133.125 27.2081 132.837 27.5265C132.549 27.8448 132.159 28.0619 131.669 28.1777C130.804 28.1777 129.853 28.1632 128.815 28.1343C127.805 28.1053 126.767 28.0764 125.701 28.0474C124.663 27.9896 123.639 27.9461 122.63 27.9172C121.621 27.8593 120.683 27.8304 119.818 27.8304ZM127.604 16.8897C127.344 17.1212 127.099 17.3528 126.868 17.5843C126.667 17.787 126.508 18.1777 126.393 18.7566C126.277 19.4223 126.191 20.059 126.133 20.6668C126.075 21.2747 126.047 21.8969 126.047 22.5337C126.047 23.8362 126.133 25.1386 126.306 26.4411C126.479 27.7146 126.667 29.0026 126.868 30.305C127.099 31.5786 127.301 32.881 127.474 34.2124C127.647 35.5149 127.733 36.8318 127.733 38.1632C127.733 38.6553 127.719 39.1473 127.69 39.6393C127.661 40.1024 127.575 40.5076 127.431 40.855C127.286 41.2312 127.07 41.5351 126.782 41.7667C126.494 41.9982 126.104 42.114 125.614 42.114C125.182 42.0561 124.821 41.8825 124.533 41.593C124.244 41.3036 124.086 40.8984 124.057 40.3774V40.2037C124.144 39.6828 124.345 39.2775 124.663 38.9881C125.009 38.6697 125.383 38.5105 125.787 38.5105C126.133 38.5105 126.465 38.6408 126.782 38.9013C127.099 39.1328 127.359 39.538 127.56 40.1169V40.5945C127.157 40.6524 126.811 40.6813 126.522 40.6813C126.263 40.7103 126.003 40.7247 125.744 40.7247C125.513 40.7247 125.254 40.7247 124.965 40.7247C124.706 40.7247 124.389 40.7392 124.014 40.7681C124.1 39.9577 124.144 39.1473 124.144 38.3369C124.144 36.8608 124.028 35.4425 123.798 34.0822C123.567 32.7218 123.351 31.3615 123.149 30.0011C122.976 28.7855 122.832 27.5988 122.716 26.4411C122.601 25.2544 122.543 24.0532 122.543 22.8376C122.543 22.114 122.572 21.2023 122.63 20.1024C122.687 18.9736 122.889 17.8883 123.235 16.8463C123.61 15.8043 124.201 14.9215 125.009 14.198C125.816 13.4454 126.955 13.0692 128.425 13.0692C129.089 13.0692 129.608 13.2283 129.982 13.5467C130.357 13.8651 130.545 14.2269 130.545 14.6321C130.545 15.3267 130.184 15.949 129.463 16.499C129.117 16.6147 128.786 16.7016 128.469 16.7595C128.18 16.7884 127.892 16.8318 127.604 16.8897Z" fill="white"/>
<path d="M139.973 28.3079C139.916 28.3369 139.887 28.3658 139.887 28.3948H139.973C140.175 28.3948 140.377 28.4527 140.579 28.5684C140.781 28.6553 140.954 28.771 141.098 28.9158C141.242 29.0315 141.357 29.1473 141.444 29.2631C141.559 29.3499 141.631 29.3933 141.66 29.3933C142.093 29.5959 142.568 29.6972 143.087 29.6972C143.924 29.6972 144.63 29.5815 145.207 29.3499C145.783 29.0894 146.072 28.4816 146.072 27.5265C145.899 26.9476 145.697 26.47 145.466 26.0938C145.264 25.7175 144.918 25.3557 144.428 25.0084L143.52 24.6176H142.914C142.684 24.6176 142.381 24.6755 142.006 24.7913C141.631 24.9071 141.256 25.0663 140.882 25.2689C140.766 25.4425 140.651 25.703 140.536 26.0503C140.42 26.3687 140.319 26.6871 140.233 27.0055C140.146 27.3239 140.074 27.6133 140.017 27.8738C139.988 28.1343 139.973 28.279 139.973 28.3079ZM140.319 32.5192L140.19 32.0417C140.536 33.5757 141.372 34.8347 142.698 35.8188C142.987 36.0503 143.347 36.2529 143.779 36.4266C144.241 36.6003 144.688 36.7595 145.12 36.9042C145.582 37.0489 145.985 37.1647 146.331 37.2515C146.677 37.3094 146.894 37.3383 146.98 37.3383C147.268 37.0778 147.629 36.9476 148.061 36.9476C148.58 37.0055 148.984 37.2226 149.272 37.5988C149.561 37.9461 149.705 38.3224 149.705 38.7276C149.705 39.3644 149.402 39.8709 148.797 40.2472C148.22 40.6524 147.6 40.855 146.937 40.855C145.524 40.855 144.183 40.5655 142.914 39.9867C141.646 39.4367 140.536 38.6842 139.584 37.7291C138.633 36.7739 137.854 35.6741 137.249 34.4295C136.672 33.1849 136.355 31.868 136.297 30.4787C136.297 29.5236 136.369 28.4961 136.513 27.3962C136.657 26.2964 136.96 25.2833 137.422 24.3571C137.883 23.402 138.546 22.6061 139.411 21.9693C140.305 21.3325 141.487 21.0142 142.958 21.0142C143.88 21.0142 144.745 21.2168 145.553 21.622C146.36 21.9982 147.052 22.5192 147.629 23.1849C148.234 23.8506 148.71 24.6176 149.056 25.4859C149.402 26.3253 149.575 27.2081 149.575 28.1343C149.575 28.9736 149.417 29.7117 149.099 30.3485C148.811 30.9852 148.407 31.5207 147.888 31.9548C147.369 32.36 146.749 32.6784 146.029 32.91C145.337 33.1126 144.601 33.2139 143.823 33.2139C143.506 33.2139 143.145 33.1849 142.741 33.127C142.367 33.0692 142.006 33.0113 141.66 32.9534C141.314 32.8665 141.011 32.7942 140.752 32.7363C140.521 32.6495 140.377 32.5771 140.319 32.5192Z" fill="white"/>
<path d="M161.988 15.5872C161.613 15.4136 161.325 15.1676 161.123 14.8492C160.921 14.5019 160.82 14.169 160.82 13.8506C160.82 13.4454 160.979 13.0547 161.296 12.6784C161.613 12.3021 162.089 12.114 162.723 12.114C164.107 12.3745 165.16 12.7652 165.881 13.2862C166.602 13.7783 167.121 14.4006 167.438 15.1531C167.755 15.8767 167.928 16.716 167.957 17.6712C167.986 18.6263 168 19.6683 168 20.7971C168 21.868 167.986 22.9244 167.957 23.9664C167.928 25.0084 167.913 26.0793 167.913 27.1791V30.7392C167.913 31.2891 167.899 31.8825 167.87 32.5192C167.841 33.127 167.813 33.7349 167.784 34.3427C167.755 34.9505 167.726 35.5294 167.697 36.0793C167.668 36.6292 167.654 37.0923 167.654 37.4686C167.654 38.8579 167.193 39.8998 166.27 40.5945C165.376 41.3181 163.761 41.6799 161.426 41.6799C160.186 41.6799 159.047 41.376 158.009 40.7681C157 40.1603 156.12 39.3933 155.371 38.4671C154.65 37.512 154.073 36.4845 153.641 35.3846C153.237 34.2558 153.035 33.1705 153.035 32.1285C153.035 30.7103 153.324 29.5236 153.9 28.5684C154.477 27.6133 155.198 26.8608 156.063 26.3108C156.928 25.7609 157.836 25.3702 158.788 25.1386C159.768 24.9071 160.647 24.7913 161.426 24.7913C161.916 24.7913 162.406 24.8058 162.896 24.8347C163.387 24.8347 163.891 24.8347 164.41 24.8347C164.439 23.8796 164.468 22.8665 164.497 21.7956C164.526 20.6958 164.54 19.6249 164.54 18.5829C164.54 18.1198 164.497 17.6856 164.41 17.2804C164.353 16.8752 164.208 16.4845 163.978 16.1082C163.66 15.9346 163.358 15.8333 163.069 15.8043C162.781 15.7464 162.421 15.6741 161.988 15.5872ZM164.367 28.4816C164.396 28.4237 164.41 28.3948 164.41 28.3948C164.381 28.3658 164.367 28.3514 164.367 28.3514C163.675 28.3514 162.94 28.3369 162.161 28.3079C161.411 28.279 160.676 28.3369 159.955 28.4816C159.263 28.5974 158.629 28.8434 158.052 29.2197C157.504 29.567 157.086 30.1169 156.798 30.8694C156.74 31.0431 156.683 31.2457 156.625 31.4773C156.596 31.7088 156.553 31.9259 156.495 32.1285C156.726 34.0388 157.303 35.4425 158.225 36.3398C159.148 37.237 160.561 37.8014 162.464 38.033C162.752 37.9461 163.026 37.8738 163.286 37.8159C163.574 37.758 163.805 37.7146 163.978 37.6856C164.035 36.3542 164.107 35.0084 164.194 33.648C164.309 32.2877 164.367 30.8839 164.367 29.4367V28.4816Z" fill="white"/>
</svg>
